<?xml version="1.0" encoding="UTF-8"?>
<svg width="65px" height="66px" viewBox="0 0 65 66" version="1.1" xmlns="http://www.w3.org/2000/svg" xmlns:xlink="http://www.w3.org/1999/xlink">
    <!-- Generator: sketchtool 50.2 (55047) - http://www.bohemiancoding.com/sketch -->
    <title>EECA2346-A83B-45FA-9356-D8E7F87ACC48</title>
    <desc>Created with sketchtool.</desc>
    <defs></defs>
    <g id="All-pages" stroke="none" stroke-width="1" fill="none" fill-rule="evenodd">
        <g id="Landing-Page-v3" transform="translate(-236.000000, -1793.000000)" fill="#2CAFA4" fill-rule="nonzero">
            <g id="cross-sector-icon" transform="translate(236.000000, 1793.000000)">
                <path d="M35.3222037,28.6444073 L33.2655514,24.5311028 L40.0961611,11 L59.3742271,11 L59.3742271,15 L42.5967803,15 L35.3222037,28.6444073 Z" id="Combined-Shape" stroke="#2CAFA4"></path>
                <g id="Group-6">
                    <polygon id="Path-5" transform="translate(16.779806, 42.739350) scale(1, -1) translate(-16.779806, -42.739350) " points="0 35.3836946 0 30.3836946 22.5866831 30.3836946 33.559612 52.9049947 29.0647423 55.0950053 19.460909 35.3836946"></polygon>
                    <polygon id="Path-6" transform="translate(56.055400, 13.041046) scale(1, -1) translate(-56.055400, -13.041046) " points="48.1537871 3.68567435 51.8462129 0.314325649 63.9570126 13.5785213 51.767767 25.767767 48.232233 22.232233 57.0429986 13.4214675"></polygon>
                    <polygon id="Path-5" points="0 15.5 0 10.5 22.5866831 10.5 42.562887 51.5 59.0277564 51.5 59.0277564 56.5 39.437113 56.5 19.460909 15.5"></polygon>
                    <polygon id="Path-6" points="47.232233 44.767767 50.767767 41.232233 64.2247596 54.6892257 50.5902266 65.9290359 47.4097734 62.0709641 56.7969693 54.3325032"></polygon>
                </g>
            </g>
        </g>
    </g>
</svg>