<?xml version="1.0" encoding="UTF-8"?>
<svg width="69px" height="86px" viewBox="0 0 69 86" version="1.1" xmlns="http://www.w3.org/2000/svg" xmlns:xlink="http://www.w3.org/1999/xlink">
    <!-- Generator: sketchtool 50.2 (55047) - http://www.bohemiancoding.com/sketch -->
    <title>4AD11BEE-7C7A-4702-9B85-2E3F9527C0C5</title>
    <desc>Created with sketchtool.</desc>
    <defs></defs>
    <g id="All-pages" stroke="none" stroke-width="1" fill="none" fill-rule="evenodd">
        <g id="Landing-Page-v3" transform="translate(-1144.000000, -1787.000000)">
            <g id="evidence-icon" transform="translate(1144.000000, 1787.000000)">
                <path d="M68.4090909,51.6202049 C68.4090909,42.4552699 60.9159886,35 51.7045455,35 C42.4931023,35 35,42.4552699 35,51.6202049 C35,56.7945179 37.3882489,61.4211398 41.125,64.4703934 L41.125,84.5813953 L51.7045455,78.389815 L62.2840909,84.5813953 L62.2840909,64.4703934 C66.020842,61.4211952 68.4090909,56.7946287 68.4090909,51.6202049 Z M37.2272727,51.6202049 C37.2272727,43.677963 43.722,37.2160273 51.7045455,37.2160273 C59.6870909,37.2160273 66.1818182,43.677963 66.1818182,51.6202049 C66.1818182,59.5624469 59.6870909,66.0243825 51.7045455,66.0243825 C43.722,66.0243825 37.2272727,59.5624469 37.2272727,51.6202049 Z M60.0568182,80.7077796 L51.7045455,75.8191125 L43.3522727,80.7077796 L43.3522727,66.0049923 C45.8101239,67.4224742 48.663817,68.2405207 51.7045455,68.2405207 C54.7452739,68.2405207 57.5990227,67.4224742 60.0568182,66.0049923 L60.0568182,80.7077796 Z M45.2187273,60.8477427 L51.7045455,57.4544509 L58.1903636,60.8477427 L56.9527239,53.6628281 L62.1990091,48.575051 L54.9475659,47.525485 L51.7045455,40.9876504 L48.461525,47.525485 L41.2100818,48.575051 L46.456367,53.6628281 L45.2187273,60.8477427 Z M45.9973818,50.1205084 L49.9407682,49.5513772 L51.7047682,45.9957614 L53.4687682,49.5513772 L57.4121545,50.1205084 L54.5584614,52.888382 L55.2327125,56.796734 L51.7047682,54.9507832 L48.1768239,56.796734 L48.851075,52.888382 L45.9973818,50.1205084 Z" id="Shape" stroke="#2CAFA4" fill="#2CAFA4" fill-rule="nonzero"></path>
                <rect id="Rectangle-11" fill="#2CAFA4" x="10" y="23" width="16" height="4"></rect>
                <rect id="Rectangle-11-Copy" fill="#2CAFA4" x="10" y="33" width="24" height="4"></rect>
                <rect id="Rectangle-11-Copy-6" fill="#2CAFA4" x="10" y="44" width="19" height="4"></rect>
                <rect id="Rectangle-11-Copy-7" fill="#2CAFA4" x="10" y="55" width="14" height="4"></rect>
                <path d="M45,0.972236603 L45,4.9722366 L4.98648895,4.9722366 L4.98648895,74 L41,74 L41,78 L0.986488953,78 L0.986488953,0.972236603 L45,0.972236603 Z M60.0095995,15 L60.0095995,34 L56.0095995,33.0163287 L56.0095995,15 L60.0095995,15 Z" id="Combined-Shape" fill="#2CAFA4" fill-rule="nonzero"></path>
                <polyline id="Path-9" stroke="#2CAFA4" stroke-width="4" points="43 3 43 17.0356688 58.0357112 17.0356688"></polyline>
                <polygon id="Path-10" fill="#2CAFA4" points="45 1 60 15 55 15 45 6"></polygon>
            </g>
        </g>
    </g>
</svg>