<?xml version="1.0" encoding="UTF-8"?>
<svg width="82px" height="78px" viewBox="0 0 82 78" version="1.1" xmlns="http://www.w3.org/2000/svg" xmlns:xlink="http://www.w3.org/1999/xlink">
    <!-- Generator: sketchtool 50.2 (55047) - http://www.bohemiancoding.com/sketch -->
    <title>8E155FC3-E5C5-4831-8CCD-D9171CFB7550</title>
    <desc>Created with sketchtool.</desc>
    <defs></defs>
    <g id="All-pages" stroke="none" stroke-width="1" fill="none" fill-rule="evenodd">
        <g id="Landing-Page-v3" transform="translate(-829.000000, -1787.000000)" fill="#2CAFA4" fill-rule="nonzero">
            <path d="M869.970883,1787 C859.747399,1787 851.35909,1794.96176 851.35909,1805.33929 C851.35909,1807.85293 851.974382,1811.07396 852.815394,1813.29018 C857.956122,1823.97246 863.144198,1834.67239 868.310464,1845.35468 C868.609004,1845.98944 869.293481,1846.42829 869.999776,1846.42829 C870.706072,1846.42829 871.390558,1845.98939 871.689088,1845.35468 C876.793467,1834.64361 882.123212,1824.00868 887.184158,1813.29018 C888.032459,1811.06671 888.640462,1807.84931 888.640462,1805.33929 C888.640462,1794.95786 880.193901,1787 869.970883,1787 Z M869.970883,1790.71429 C878.27913,1790.71429 884.912325,1796.93497 884.912325,1805.33929 C884.912325,1807.13115 884.28611,1810.30863 883.68903,1811.89732 C879.170807,1821.36411 874.568888,1830.82439 869.99931,1840.27632 C865.590322,1830.75104 860.613725,1821.45418 856.30959,1811.89732 C855.716146,1810.30501 855.086295,1807.12753 855.086295,1805.33929 C855.086295,1796.92773 861.661518,1790.71429 869.969951,1790.71429 L869.970883,1790.71429 Z M870.000009,1795.35714 C864.360456,1795.35714 859.747632,1799.95283 859.747632,1805.57143 C859.747632,1811.19003 864.360456,1815.78571 870.000009,1815.78571 C875.639562,1815.78571 880.252386,1811.19003 880.252386,1805.57143 C880.252386,1799.95283 875.639562,1795.35714 870.000009,1795.35714 Z M870.000009,1799.07143 C873.626182,1799.07143 876.524249,1801.95873 876.524249,1805.57143 C876.524249,1809.18413 873.626182,1812.07143 870.000009,1812.07143 C866.373837,1812.07143 863.475769,1809.18413 863.475769,1805.57143 C863.475769,1801.95873 866.373837,1799.07143 870.000009,1799.07143 Z M836.446775,1824.14286 C835.394601,1824.14286 834.939489,1824.71958 834.611786,1825.70982 L829.01958,1862.85268 C828.852103,1863.90819 829.784137,1864.99638 830.854569,1865 L909.145449,1865 C910.215797,1865 911.147832,1863.90819 910.980438,1862.85268 L905.388233,1825.70982 C905.249882,1824.84654 904.430754,1824.14648 903.553244,1824.14286 L884.009417,1824.14286 L882.2036,1827.85714 L901.951543,1827.85714 L903.058333,1835.28571 L878.913053,1835.28571 C879.411841,1834.51311 877.380323,1837.84653 876.93248,1838.76786 L895.019538,1861.28571 L867.175013,1861.28571 L855.582371,1846.83529 L863.679419,1840.01604 L862.019279,1836.59194 L853.252378,1843.96247 L840.320402,1827.85733 L857.796045,1827.85733 L855.990229,1824.14304 L836.446775,1824.14286 Z M837.640897,1830.46875 L862.397592,1861.28618 L833.009619,1861.28618 L837.640897,1830.46875 Z M881.883633,1839 L903.641041,1839 L905.039093,1848.28571 L889.339907,1848.28571 L881.883633,1839 Z M892.340125,1852 L905.592721,1852 L906.990772,1861.28571 L899.796586,1861.28571 L892.340125,1852 Z" id="GIS-icon"></path>
        </g>
    </g>
</svg>