<?xml version="1.0" encoding="UTF-8"?>
<svg width="330px" height="50px" viewBox="0 0 330 50" version="1.1" xmlns="http://www.w3.org/2000/svg" xmlns:xlink="http://www.w3.org/1999/xlink">
    <!-- Generator: Sketch 51.3 (57544) - http://www.bohemiancoding.com/sketch -->
    <title>header logo block</title>
    <desc>Created with Sketch.</desc>
    <defs>
        <rect id="path-1" x="0" y="0" width="33" height="33"></rect>
    </defs>
    <g id="All-pages" stroke="none" stroke-width="1" fill="none" fill-rule="evenodd">
        <g id="Header-v2" transform="translate(-134.000000, -22.000000)">
            <g id="header-logo-block" transform="translate(134.000000, 22.000000)">
                <g id="B_AIR_Stacked_1-Color_RGB-Copy" transform="translate(0.000000, 1.000000)" fill="#182B5E">
                    <path d="M55.557,7.787 L55.659,7.787 L60.25,20.622 L51.013,20.622 L55.557,7.787 Z M60.981,35.491 L73.609,35.491 L73.609,34.295 C70.374,34.036 69.699,33.668 68.027,29.285 C65.992,23.963 63.696,17.34 61.24,10.709 L57.539,0.798 L56.341,1.264 L45.589,28.981 C43.764,33.615 43.346,33.929 39.952,34.295 L39.952,35.491 L51.121,35.491 L51.121,34.295 L49.555,34.139 C47.207,33.929 46.736,33.248 47.728,30.221 C48.46,28.03 49.816,23.963 50.337,22.609 L60.931,22.609 C62.391,26.363 63.904,30.438 64.271,31.686 C64.794,33.302 64.586,33.874 62.653,34.086 L60.981,34.295 L60.981,35.491 Z" id="Fill-1"></path>
                    <path d="M84.804,27.929 C84.804,33.615 85.223,33.981 89.499,34.295 L89.499,35.491 L75.726,35.491 L75.726,34.295 C80.007,33.981 80.422,33.615 80.422,27.929 L80.422,9.145 C80.422,3.454 80.007,3.086 75.726,2.784 L75.726,1.577 L89.499,1.577 L89.499,2.784 C85.223,3.086 84.804,3.454 84.804,9.145 L84.804,27.929" id="Fill-2"></path>
                    <path d="M100.932,4.656 C100.932,3.612 101.089,3.352 101.399,3.25 C101.817,3.089 102.544,2.984 104.324,2.984 C108.232,2.984 112.2,5.175 112.2,10.66 C112.2,13.218 111.419,15.769 109.177,17.547 C107.767,18.691 106.096,18.949 103.955,18.949 L100.932,18.949 L100.932,4.656 Z M100.932,20.47 L103.75,20.47 C105.368,20.47 106.203,20.985 107.035,22.344 C108.494,24.797 110.689,28.66 112.306,31.004 C114.287,33.879 116.114,35.701 122.114,35.86 L122.849,35.86 L122.948,34.865 C121.068,34.398 120.131,33.561 119.034,32.26 C117.628,30.693 116.531,29.282 114.655,26.52 C113.09,24.222 110.95,20.622 110.009,19.055 C114.233,17.331 116.898,14.258 116.898,9.928 C116.898,6.901 115.537,4.552 113.452,3.25 C111.523,1.945 108.548,1.477 105.205,1.477 L91.955,1.477 L91.955,2.674 C96.133,2.984 96.544,3.352 96.544,9.039 L96.544,27.827 C96.544,33.511 96.133,33.879 91.75,34.188 L91.75,35.388 L105.629,35.388 L105.629,34.188 C101.35,33.879 100.932,33.511 100.932,27.827 L100.932,20.47 Z" id="Fill-3"></path>
                    <path d="M120.714,1.323 C121.913,1.323 122.87,2.3 122.87,3.521 C122.87,4.762 121.913,5.73 120.703,5.73 C119.503,5.73 118.526,4.762 118.526,3.521 C118.526,2.3 119.503,1.323 120.703,1.323 L120.714,1.323 Z M120.703,1.666 C119.737,1.666 118.948,2.495 118.948,3.521 C118.948,4.567 119.737,5.385 120.714,5.385 C121.69,5.396 122.472,4.567 122.472,3.531 C122.472,2.495 121.69,1.666 120.714,1.666 L120.703,1.666 Z M120.292,4.801 L119.904,4.801 L119.904,2.348 C120.107,2.321 120.303,2.291 120.594,2.291 C120.964,2.291 121.211,2.37 121.356,2.474 C121.504,2.584 121.581,2.748 121.581,2.984 C121.581,3.306 121.365,3.5 121.105,3.581 L121.105,3.599 C121.317,3.637 121.467,3.831 121.514,4.194 C121.572,4.576 121.628,4.722 121.671,4.801 L121.257,4.801 C121.199,4.722 121.143,4.497 121.095,4.175 C121.035,3.864 120.876,3.745 120.566,3.745 L120.292,3.745 L120.292,4.801 Z M120.292,3.443 L120.577,3.443 C120.897,3.443 121.17,3.324 121.17,3.021 C121.17,2.807 121.015,2.594 120.577,2.594 C120.451,2.594 120.363,2.603 120.292,2.613 L120.292,3.443 Z" id="Fill-4"></path>
                    <path d="M0.686,35.831 L36.095,35.831 L36.095,0.422 L0.686,0.422 L0.686,35.831 Z M8.365,33.56 L6.984,33.56 L6.984,28.526 C6.984,25.633 5.882,23.29 4.519,23.29 C3.961,23.29 3.45,23.684 3.04,24.342 C3.44,22.385 4.436,20.993 5.608,20.993 C7.129,20.993 8.365,23.337 8.365,26.232 L8.365,33.56 Z M14.178,33.56 L12.915,33.56 L12.915,27.627 C12.915,25.298 12.009,23.409 10.892,23.409 C10.467,23.409 10.073,23.687 9.748,24.162 C9.993,22.33 10.872,20.974 11.926,20.974 C13.171,20.974 14.178,22.862 14.178,25.19 L14.178,33.56 Z M18.254,33.56 L17.218,33.56 L17.218,27.642 C17.218,25.235 16.683,23.279 16.017,23.279 C15.761,23.279 15.524,23.571 15.33,24.06 C15.522,22.288 16.087,21.005 16.76,21.005 C17.582,21.005 18.254,22.957 18.254,25.367 L18.254,33.56 Z M21.789,33.56 L20.933,33.56 L20.933,27.29 C20.933,25.089 20.492,23.302 19.95,23.302 C19.749,23.302 19.56,23.551 19.403,23.982 C19.541,22.278 20.013,21.023 20.575,21.023 C21.247,21.023 21.789,22.811 21.789,25.015 L21.789,33.56 Z M33.727,33.473 L22.419,33.473 L22.419,19.96 L2.968,19.96 L2.968,18.529 L23.527,18.529 L23.527,18.199 C22.219,16.646 18.104,16.785 18.104,16.785 L2.968,16.676 L2.968,15.464 L26.253,15.464 L26.253,15.21 C25.018,13.579 20.761,13.719 20.761,13.719 L2.968,13.592 L2.968,12.311 L28.675,12.311 L28.675,7.653 L2.968,7.653 L2.968,2.713 L33.727,2.713 L33.727,33.473 Z" id="Fill-5"></path>
                    <path d="M2.589,44.733 L2.604,44.733 L3.267,46.584 L1.934,46.584 L2.589,44.733 Z M3.372,48.732 L5.196,48.732 L5.196,48.559 C4.729,48.521 4.63,48.469 4.39,47.835 C4.094,47.068 3.765,46.113 3.409,45.152 L2.876,43.723 L2.701,43.791 L1.151,47.79 C0.887,48.461 0.827,48.504 0.337,48.559 L0.337,48.732 L1.949,48.732 L1.949,48.559 L1.723,48.537 C1.383,48.504 1.317,48.408 1.459,47.972 C1.565,47.656 1.761,47.068 1.835,46.871 L3.365,46.871 C3.576,47.414 3.796,48.001 3.846,48.182 C3.923,48.417 3.893,48.497 3.614,48.528 L3.372,48.559 L3.372,48.732 Z" id="Fill-6"></path>
                    <path d="M6.734,44.569 L8.284,47.867 L9.806,44.569 L10.863,44.569 L10.863,44.717 C10.307,44.763 10.268,44.788 10.287,45.5 L10.338,47.806 C10.358,48.521 10.377,48.539 10.941,48.586 L10.941,48.732 L9.249,48.732 L9.249,48.586 C9.789,48.539 9.806,48.521 9.8,47.806 L9.777,45.224 L9.749,45.224 L8.181,48.662 L8.021,48.662 L6.542,45.313 L6.529,45.313 L6.465,47.1 C6.439,47.703 6.439,48.053 6.465,48.252 C6.498,48.49 6.65,48.552 7.067,48.586 L7.067,48.732 L5.563,48.732 L5.563,48.586 C5.919,48.552 6.055,48.49 6.1,48.252 C6.137,48.053 6.177,47.669 6.208,47.035 L6.279,45.69 C6.324,44.832 6.279,44.763 5.677,44.717 L5.677,44.569 L6.734,44.569" id="Fill-7"></path>
                    <path d="M12.137,45.5 C12.137,44.802 12.087,44.757 11.575,44.717 L11.575,44.57 L14.379,44.57 C14.384,44.679 14.416,45.146 14.448,45.507 L14.289,45.525 C14.224,45.204 14.156,45.039 14.058,44.935 C13.955,44.827 13.744,44.782 13.356,44.782 L12.868,44.782 C12.689,44.782 12.675,44.795 12.675,44.981 L12.675,46.441 L13.321,46.441 C13.873,46.441 13.892,46.403 13.955,45.927 L14.116,45.927 L14.116,47.196 L13.955,47.196 C13.923,46.958 13.905,46.83 13.821,46.76 C13.738,46.689 13.598,46.677 13.321,46.677 L12.675,46.677 L12.675,47.81 C12.675,48.177 12.714,48.366 12.836,48.443 C12.957,48.521 13.188,48.521 13.488,48.521 C13.853,48.521 14.156,48.49 14.296,48.335 C14.405,48.219 14.507,48.003 14.602,47.709 L14.763,47.728 C14.732,47.904 14.589,48.559 14.539,48.732 L11.51,48.732 L11.51,48.586 C12.087,48.546 12.137,48.503 12.137,47.805 L12.137,45.5" id="Fill-8"></path>
                    <path d="M16.415,44.96 C16.415,44.833 16.433,44.802 16.472,44.788 C16.522,44.769 16.613,44.757 16.83,44.757 C17.31,44.757 17.797,45.025 17.797,45.697 C17.797,46.01 17.701,46.325 17.426,46.543 C17.252,46.684 17.048,46.716 16.786,46.716 L16.415,46.716 L16.415,44.96 Z M16.415,46.902 L16.76,46.902 C16.958,46.902 17.062,46.965 17.163,47.131 C17.342,47.432 17.611,47.905 17.81,48.194 C18.053,48.547 18.278,48.77 19.015,48.79 L19.103,48.79 L19.116,48.669 C18.885,48.612 18.77,48.509 18.636,48.347 C18.463,48.155 18.328,47.983 18.098,47.644 C17.905,47.363 17.643,46.92 17.528,46.726 C18.047,46.516 18.374,46.139 18.374,45.608 C18.374,45.236 18.207,44.948 17.952,44.788 C17.714,44.627 17.348,44.569 16.94,44.569 L15.313,44.569 L15.313,44.717 C15.825,44.757 15.878,44.802 15.878,45.5 L15.878,47.806 C15.878,48.503 15.825,48.547 15.287,48.586 L15.287,48.732 L16.989,48.732 L16.989,48.586 C16.466,48.547 16.415,48.503 16.415,47.806 L16.415,46.902 Z" id="Fill-9"></path>
                    <path d="M20.589,47.805 C20.589,48.503 20.64,48.546 21.164,48.586 L21.164,48.731 L19.476,48.731 L19.476,48.586 C20,48.546 20.052,48.503 20.052,47.805 L20.052,45.5 C20.052,44.802 20,44.757 19.476,44.717 L19.476,44.569 L21.164,44.569 L21.164,44.717 C20.64,44.757 20.589,44.802 20.589,45.5 L20.589,47.805" id="Fill-10"></path>
                    <path d="M25.391,45.621 C25.199,44.884 24.789,44.686 24.161,44.686 C23.01,44.686 22.497,45.558 22.497,46.561 C22.497,47.797 23.131,48.617 24.168,48.617 C24.885,48.617 25.218,48.27 25.532,47.6 L25.692,47.619 C25.609,47.893 25.468,48.406 25.366,48.649 C25.186,48.693 24.611,48.828 24.161,48.828 C22.542,48.828 21.864,47.728 21.864,46.709 C21.864,45.391 22.881,44.475 24.284,44.475 C24.828,44.475 25.258,44.603 25.436,44.64 C25.487,44.994 25.512,45.274 25.55,45.607 L25.391,45.621" id="Fill-11"></path>
                    <path d="M27.913,45.333 L27.928,45.333 L28.49,46.907 L27.356,46.907 L27.913,45.333 Z M28.58,48.732 L30.128,48.732 L30.128,48.586 C29.732,48.552 29.648,48.508 29.444,47.971 C29.194,47.317 28.913,46.505 28.612,45.691 L28.157,44.475 L28.01,44.532 L26.691,47.933 C26.466,48.503 26.414,48.539 26.001,48.586 L26.001,48.732 L27.371,48.732 L27.371,48.586 L27.177,48.565 C26.889,48.539 26.833,48.456 26.953,48.086 C27.043,47.815 27.209,47.317 27.273,47.15 L28.574,47.15 C28.752,47.612 28.939,48.112 28.982,48.265 C29.047,48.464 29.02,48.534 28.785,48.559 L28.58,48.586 L28.58,48.732 Z" id="Fill-12"></path>
                    <path d="M34.341,48.776 L34.174,48.776 L31.397,45.402 L31.383,45.402 L31.383,47.035 C31.383,47.708 31.407,48.054 31.435,48.252 C31.468,48.474 31.641,48.565 32.063,48.585 L32.063,48.732 L30.526,48.732 L30.526,48.585 C30.877,48.572 31.044,48.474 31.077,48.252 C31.102,48.054 31.127,47.708 31.127,47.035 L31.127,45.645 C31.127,45.185 31.121,45.081 31.005,44.936 C30.885,44.783 30.712,44.736 30.442,44.717 L30.442,44.569 L31.377,44.569 L34.074,47.797 L34.085,47.797 L34.085,46.267 C34.085,45.594 34.059,45.248 34.035,45.05 C34.004,44.827 33.83,44.736 33.406,44.717 L33.406,44.569 L34.944,44.569 L34.944,44.717 C34.591,44.731 34.425,44.827 34.393,45.05 C34.367,45.248 34.341,45.594 34.341,46.267 L34.341,48.776" id="Fill-13"></path>
                    <path d="M38.664,47.64 C38.664,48.461 38.723,48.513 39.342,48.559 L39.342,48.732 L37.353,48.732 L37.353,48.559 C37.971,48.513 38.031,48.461 38.031,47.64 L38.031,44.927 C38.031,44.106 37.971,44.054 37.353,44.008 L37.353,43.838 L39.342,43.838 L39.342,44.008 C38.723,44.054 38.664,44.106 38.664,44.927 L38.664,47.64" id="Fill-14"></path>
                    <path d="M43.86,48.776 L43.694,48.776 L40.915,45.402 L40.902,45.402 L40.902,47.035 C40.902,47.708 40.926,48.054 40.951,48.252 C40.985,48.474 41.157,48.565 41.58,48.585 L41.58,48.732 L40.043,48.732 L40.043,48.585 C40.395,48.572 40.562,48.474 40.593,48.252 C40.62,48.054 40.646,47.708 40.646,47.035 L40.646,45.645 C40.646,45.185 40.638,45.081 40.525,44.936 C40.402,44.783 40.229,44.736 39.96,44.717 L39.96,44.569 L40.896,44.569 L43.592,47.797 L43.603,47.797 L43.603,46.267 C43.603,45.594 43.578,45.248 43.553,45.05 C43.519,44.827 43.347,44.736 42.926,44.717 L42.926,44.569 L44.462,44.569 L44.462,44.717 C44.11,44.731 43.942,44.827 43.911,45.05 C43.884,45.248 43.86,45.594 43.86,46.267 L43.86,48.776" id="Fill-15"></path>
                    <path d="M45.191,47.605 C45.295,47.904 45.619,48.618 46.299,48.618 C46.786,48.618 47.093,48.29 47.093,47.79 C47.093,47.247 46.678,47.022 46.266,46.825 C46.056,46.721 45.191,46.422 45.191,45.654 C45.191,45.018 45.672,44.475 46.51,44.475 C46.69,44.475 46.908,44.513 47.041,44.557 C47.125,44.583 47.215,44.614 47.286,44.628 C47.31,44.85 47.349,45.107 47.399,45.491 L47.241,45.512 C47.13,45.133 46.951,44.685 46.37,44.685 C45.914,44.685 45.677,45.018 45.677,45.397 C45.677,45.87 46.016,46.082 46.505,46.299 C46.926,46.485 47.599,46.748 47.599,47.541 C47.599,48.284 46.991,48.829 46.177,48.829 C45.947,48.829 45.727,48.782 45.569,48.732 C45.409,48.68 45.295,48.629 45.217,48.598 C45.166,48.431 45.095,47.978 45.033,47.631 L45.191,47.605" id="Fill-16"></path>
                    <path d="M50.23,47.805 C50.23,48.503 50.282,48.546 50.909,48.586 L50.909,48.731 L49.04,48.731 L49.04,48.586 C49.641,48.546 49.692,48.503 49.692,47.805 L49.692,44.782 L49.392,44.782 C48.823,44.782 48.65,44.864 48.553,44.987 C48.483,45.076 48.407,45.256 48.329,45.539 L48.168,45.539 C48.194,45.146 48.233,44.736 48.245,44.41 L48.336,44.41 C48.431,44.557 48.495,44.569 48.669,44.569 L51.292,44.569 C51.46,44.569 51.492,44.531 51.593,44.41 L51.683,44.41 C51.689,44.679 51.723,45.146 51.755,45.518 L51.593,45.539 C51.53,45.229 51.46,45.05 51.364,44.949 C51.256,44.827 51.056,44.782 50.66,44.782 L50.23,44.782 L50.23,47.805" id="Fill-17"></path>
                    <path d="M53.432,47.805 C53.432,48.503 53.483,48.546 54.008,48.586 L54.008,48.731 L52.317,48.731 L52.317,48.586 C52.842,48.546 52.894,48.503 52.894,47.805 L52.894,45.5 C52.894,44.802 52.842,44.757 52.317,44.717 L52.317,44.569 L54.008,44.569 L54.008,44.717 C53.483,44.757 53.432,44.802 53.432,45.5 L53.432,47.805" id="Fill-18"></path>
                    <path d="M56.645,47.805 C56.645,48.503 56.696,48.546 57.324,48.586 L57.324,48.731 L55.455,48.731 L55.455,48.586 C56.056,48.546 56.109,48.503 56.109,47.805 L56.109,44.782 L55.806,44.782 C55.237,44.782 55.064,44.864 54.967,44.987 C54.898,45.076 54.82,45.256 54.744,45.539 L54.584,45.539 C54.61,45.146 54.648,44.736 54.66,44.41 L54.751,44.41 C54.847,44.557 54.911,44.569 55.083,44.569 L57.708,44.569 C57.875,44.569 57.907,44.531 58.009,44.41 L58.099,44.41 C58.106,44.679 58.137,45.146 58.17,45.518 L58.009,45.539 C57.944,45.229 57.875,45.05 57.779,44.949 C57.67,44.827 57.471,44.782 57.076,44.782 L56.645,44.782 L56.645,47.805" id="Fill-19"></path>
                    <path d="M60.36,44.569 L60.36,44.717 C59.846,44.758 59.795,44.801 59.795,45.5 L59.795,46.838 C59.795,47.382 59.866,47.79 60.065,48.08 C60.262,48.362 60.557,48.521 60.987,48.521 C61.391,48.521 61.723,48.348 61.927,48.039 C62.139,47.721 62.215,47.158 62.215,46.619 L62.215,46.274 C62.215,45.602 62.19,45.248 62.165,45.05 C62.133,44.827 61.96,44.736 61.537,44.717 L61.537,44.569 L63.074,44.569 L63.074,44.717 C62.721,44.731 62.555,44.827 62.524,45.05 C62.498,45.248 62.471,45.602 62.471,46.274 L62.471,46.701 C62.471,47.445 62.356,47.971 61.985,48.366 C61.71,48.662 61.249,48.828 60.801,48.828 C60.45,48.828 60.045,48.745 59.751,48.503 C59.412,48.227 59.257,47.79 59.257,47.062 L59.257,45.5 C59.257,44.801 59.206,44.758 58.669,44.717 L58.669,44.569 L60.36,44.569" id="Fill-20"></path>
                    <path d="M65.576,47.805 C65.576,48.503 65.628,48.546 66.255,48.586 L66.255,48.731 L64.385,48.731 L64.385,48.586 C64.988,48.546 65.041,48.503 65.041,47.805 L65.041,44.782 L64.74,44.782 C64.169,44.782 63.996,44.864 63.899,44.987 C63.829,45.076 63.754,45.256 63.675,45.539 L63.516,45.539 C63.54,45.146 63.58,44.736 63.593,44.41 L63.682,44.41 C63.78,44.557 63.843,44.569 64.015,44.569 L66.639,44.569 C66.808,44.569 66.839,44.531 66.94,44.41 L67.029,44.41 C67.037,44.679 67.068,45.146 67.103,45.518 L66.94,45.539 C66.877,45.229 66.808,45.05 66.712,44.949 C66.602,44.827 66.402,44.782 66.008,44.782 L65.576,44.782 L65.576,47.805" id="Fill-21"></path>
                    <path d="M68.24,45.5 C68.24,44.802 68.188,44.757 67.676,44.717 L67.676,44.57 L70.482,44.57 C70.488,44.679 70.52,45.146 70.552,45.507 L70.391,45.525 C70.328,45.204 70.256,45.039 70.16,44.935 C70.059,44.827 69.847,44.782 69.457,44.782 L68.97,44.782 C68.791,44.782 68.777,44.795 68.777,44.981 L68.777,46.441 L69.424,46.441 C69.975,46.441 69.994,46.403 70.059,45.927 L70.218,45.927 L70.218,47.196 L70.059,47.196 C70.027,46.958 70.008,46.83 69.925,46.76 C69.841,46.689 69.7,46.677 69.424,46.677 L68.777,46.677 L68.777,47.81 C68.777,48.177 68.817,48.366 68.937,48.443 C69.061,48.521 69.291,48.521 69.591,48.521 C69.957,48.521 70.256,48.49 70.398,48.335 C70.507,48.219 70.609,48.003 70.706,47.709 L70.866,47.728 C70.835,47.904 70.693,48.559 70.641,48.732 L67.613,48.732 L67.613,48.586 C68.188,48.546 68.24,48.503 68.24,47.805 L68.24,45.5" id="Fill-22"></path>
                    <path d="M71.589,47.605 C71.69,47.904 72.019,48.618 72.698,48.618 C73.184,48.618 73.491,48.29 73.491,47.79 C73.491,47.247 73.075,47.022 72.664,46.825 C72.453,46.721 71.589,46.422 71.589,45.654 C71.589,45.018 72.069,44.475 72.909,44.475 C73.087,44.475 73.305,44.513 73.439,44.557 C73.522,44.583 73.611,44.614 73.681,44.628 C73.708,44.85 73.748,45.107 73.796,45.491 L73.638,45.512 C73.529,45.133 73.349,44.685 72.767,44.685 C72.313,44.685 72.075,45.018 72.075,45.397 C72.075,45.87 72.415,46.082 72.901,46.299 C73.323,46.485 73.997,46.748 73.997,47.541 C73.997,48.284 73.389,48.829 72.575,48.829 C72.345,48.829 72.127,48.782 71.967,48.732 C71.807,48.68 71.69,48.629 71.614,48.598 C71.563,48.431 71.493,47.978 71.428,47.631 L71.589,47.605" id="Fill-23"></path>
                    <path d="M77.209,45.5 C77.209,44.802 77.16,44.757 76.646,44.717 L76.646,44.57 L79.426,44.57 C79.431,44.679 79.464,45.146 79.495,45.507 L79.336,45.525 C79.272,45.204 79.201,45.039 79.105,44.935 C79.004,44.827 78.792,44.782 78.401,44.782 L77.939,44.782 C77.76,44.782 77.748,44.795 77.748,44.981 L77.748,46.512 L78.445,46.512 C78.996,46.512 79.014,46.473 79.081,45.998 L79.239,45.998 L79.239,47.26 L79.081,47.26 C79.014,46.785 78.996,46.747 78.445,46.747 L77.748,46.747 L77.748,47.805 C77.748,48.503 77.8,48.546 78.414,48.586 L78.414,48.732 L76.646,48.732 L76.646,48.586 C77.16,48.546 77.209,48.503 77.209,47.805 L77.209,45.5" id="Fill-24"></path>
                    <path d="M83.76,46.83 C83.76,48.022 83.132,48.618 82.365,48.618 C81.43,48.618 80.782,47.746 80.782,46.512 C80.782,45.307 81.422,44.686 82.178,44.686 C83.094,44.686 83.76,45.448 83.76,46.83 M82.344,44.475 C80.917,44.475 80.161,45.622 80.161,46.698 C80.161,47.904 81.021,48.829 82.231,48.829 C83.454,48.829 84.38,47.925 84.38,46.594 C84.38,45.334 83.454,44.475 82.344,44.475" id="Fill-25"></path>
                    <path d="M86.195,44.96 C86.195,44.833 86.211,44.802 86.252,44.788 C86.303,44.769 86.39,44.757 86.61,44.757 C87.09,44.757 87.576,45.025 87.576,45.697 C87.576,46.01 87.481,46.325 87.203,46.543 C87.031,46.684 86.826,46.716 86.564,46.716 L86.195,46.716 L86.195,44.96 Z M86.195,46.902 L86.539,46.902 C86.737,46.902 86.84,46.965 86.944,47.131 C87.121,47.432 87.39,47.905 87.588,48.194 C87.832,48.547 88.058,48.77 88.793,48.79 L88.881,48.79 L88.896,48.669 C88.665,48.612 88.551,48.509 88.416,48.347 C88.243,48.155 88.107,47.983 87.878,47.644 C87.685,47.363 87.422,46.92 87.307,46.726 C87.826,46.516 88.154,46.139 88.154,45.608 C88.154,45.236 87.985,44.948 87.727,44.788 C87.493,44.627 87.127,44.569 86.717,44.569 L85.092,44.569 L85.092,44.717 C85.605,44.757 85.654,44.802 85.654,45.5 L85.654,47.806 C85.654,48.503 85.605,48.547 85.065,48.586 L85.065,48.732 L86.77,48.732 L86.77,48.586 C86.244,48.547 86.195,48.503 86.195,47.806 L86.195,46.902 Z" id="Fill-26"></path>
                    <path d="M92.11,44.296 C92.11,44.145 92.133,44.106 92.178,44.093 C92.238,44.07 92.342,44.054 92.599,44.054 C93.162,44.054 93.736,44.371 93.736,45.16 C93.736,45.53 93.624,45.898 93.3,46.157 C93.098,46.321 92.856,46.359 92.545,46.359 L92.11,46.359 L92.11,44.296 Z M92.11,46.579 L92.517,46.579 C92.75,46.579 92.87,46.653 92.991,46.849 C93.203,47.204 93.519,47.76 93.751,48.099 C94.04,48.513 94.301,48.776 95.168,48.8 L95.273,48.8 L95.288,48.655 C95.016,48.59 94.881,48.469 94.723,48.28 C94.52,48.057 94.362,47.851 94.09,47.451 C93.865,47.12 93.556,46.599 93.42,46.373 C94.03,46.125 94.414,45.682 94.414,45.055 C94.414,44.62 94.219,44.279 93.917,44.093 C93.638,43.904 93.209,43.837 92.727,43.837 L90.814,43.837 L90.814,44.008 C91.417,44.054 91.477,44.106 91.477,44.927 L91.477,47.641 C91.477,48.461 91.417,48.513 90.783,48.558 L90.783,48.732 L92.79,48.732 L92.79,48.558 C92.169,48.513 92.11,48.461 92.11,47.641 L92.11,46.579 Z" id="Fill-27"></path>
                    <path d="M96.246,45.5 C96.246,44.802 96.194,44.757 95.683,44.717 L95.683,44.57 L98.486,44.57 C98.493,44.679 98.525,45.146 98.557,45.507 L98.397,45.525 C98.334,45.204 98.264,45.039 98.166,44.935 C98.062,44.827 97.852,44.782 97.462,44.782 L96.975,44.782 C96.798,44.782 96.783,44.795 96.783,44.981 L96.783,46.441 L97.431,46.441 C97.981,46.441 98.001,46.403 98.062,45.927 L98.225,45.927 L98.225,47.196 L98.062,47.196 C98.031,46.958 98.013,46.83 97.929,46.76 C97.846,46.689 97.705,46.677 97.431,46.677 L96.783,46.677 L96.783,47.81 C96.783,48.177 96.822,48.366 96.944,48.443 C97.065,48.521 97.297,48.521 97.595,48.521 C97.961,48.521 98.264,48.49 98.404,48.335 C98.512,48.219 98.615,48.003 98.711,47.709 L98.871,47.728 C98.84,47.904 98.698,48.559 98.646,48.732 L95.619,48.732 L95.619,48.586 C96.194,48.546 96.246,48.503 96.246,47.805 L96.246,45.5" id="Fill-28"></path>
                    <path d="M99.593,47.605 C99.697,47.904 100.023,48.618 100.702,48.618 C101.187,48.618 101.496,48.29 101.496,47.79 C101.496,47.247 101.079,47.022 100.67,46.825 C100.458,46.721 99.593,46.422 99.593,45.654 C99.593,45.018 100.074,44.475 100.91,44.475 C101.092,44.475 101.308,44.513 101.445,44.557 C101.528,44.583 101.617,44.614 101.689,44.628 C101.713,44.85 101.751,45.107 101.803,45.491 L101.642,45.512 C101.533,45.133 101.356,44.685 100.771,44.685 C100.318,44.685 100.081,45.018 100.081,45.397 C100.081,45.87 100.419,46.082 100.907,46.299 C101.329,46.485 102,46.748 102,47.541 C102,48.284 101.393,48.829 100.581,48.829 C100.35,48.829 100.131,48.782 99.972,48.732 C99.812,48.68 99.697,48.629 99.621,48.598 C99.569,48.431 99.498,47.978 99.434,47.631 L99.593,47.605" id="Fill-29"></path>
                    <path d="M103.226,45.5 C103.226,44.802 103.173,44.757 102.661,44.717 L102.661,44.57 L105.465,44.57 C105.471,44.679 105.505,45.146 105.537,45.507 L105.375,45.525 C105.31,45.204 105.241,45.039 105.145,44.935 C105.043,44.827 104.831,44.782 104.44,44.782 L103.953,44.782 C103.774,44.782 103.764,44.795 103.764,44.981 L103.764,46.441 L104.41,46.441 C104.96,46.441 104.979,46.403 105.043,45.927 L105.203,45.927 L105.203,47.196 L105.043,47.196 C105.01,46.958 104.993,46.83 104.907,46.76 C104.826,46.689 104.685,46.677 104.41,46.677 L103.764,46.677 L103.764,47.81 C103.764,48.177 103.801,48.366 103.922,48.443 C104.047,48.521 104.273,48.521 104.574,48.521 C104.941,48.521 105.241,48.49 105.382,48.335 C105.489,48.219 105.593,48.003 105.688,47.709 L105.847,47.728 C105.817,47.904 105.677,48.559 105.625,48.732 L102.597,48.732 L102.597,48.586 C103.173,48.546 103.226,48.503 103.226,47.805 L103.226,45.5" id="Fill-30"></path>
                    <path d="M108.072,45.333 L108.085,45.333 L108.649,46.907 L107.514,46.907 L108.072,45.333 Z M108.737,48.732 L110.287,48.732 L110.287,48.586 C109.89,48.552 109.806,48.508 109.6,47.971 C109.352,47.317 109.071,46.505 108.767,45.691 L108.315,44.475 L108.167,44.532 L106.848,47.933 C106.623,48.503 106.575,48.539 106.157,48.586 L106.157,48.732 L107.528,48.732 L107.528,48.586 L107.335,48.565 C107.047,48.539 106.988,48.456 107.112,48.086 C107.199,47.815 107.367,47.317 107.43,47.15 L108.731,47.15 C108.909,47.612 109.095,48.112 109.141,48.265 C109.205,48.464 109.178,48.534 108.942,48.559 L108.737,48.586 L108.737,48.732 Z" id="Fill-31"></path>
                    <path d="M111.823,44.96 C111.823,44.833 111.842,44.802 111.88,44.788 C111.933,44.769 112.021,44.757 112.239,44.757 C112.72,44.757 113.206,45.025 113.206,45.697 C113.206,46.01 113.109,46.325 112.834,46.543 C112.66,46.684 112.457,46.716 112.194,46.716 L111.823,46.716 L111.823,44.96 Z M111.823,46.902 L112.168,46.902 C112.368,46.902 112.472,46.965 112.573,47.131 C112.751,47.432 113.018,47.905 113.219,48.194 C113.463,48.547 113.686,48.77 114.422,48.79 L114.511,48.79 L114.526,48.669 C114.293,48.612 114.179,48.509 114.044,48.347 C113.872,48.155 113.736,47.983 113.508,47.644 C113.314,47.363 113.053,46.92 112.937,46.726 C113.455,46.516 113.781,46.139 113.781,45.608 C113.781,45.236 113.616,44.948 113.36,44.788 C113.121,44.627 112.757,44.569 112.349,44.569 L110.721,44.569 L110.721,44.717 C111.233,44.757 111.284,44.802 111.284,45.5 L111.284,47.806 C111.284,48.503 111.233,48.547 110.695,48.586 L110.695,48.732 L112.399,48.732 L112.399,48.586 C111.873,48.547 111.823,48.503 111.823,47.806 L111.823,46.902 Z" id="Fill-32"></path>
                    <path d="M118.302,45.621 C118.112,44.884 117.701,44.686 117.075,44.686 C115.921,44.686 115.408,45.558 115.408,46.561 C115.408,47.797 116.043,48.617 117.079,48.617 C117.797,48.617 118.13,48.27 118.444,47.6 L118.603,47.619 C118.518,47.893 118.38,48.406 118.278,48.649 C118.097,48.693 117.522,48.828 117.075,48.828 C115.453,48.828 114.776,47.728 114.776,46.709 C114.776,45.391 115.793,44.475 117.198,44.475 C117.739,44.475 118.17,44.603 118.347,44.64 C118.398,44.994 118.424,45.274 118.463,45.607 L118.302,45.621" id="Fill-33"></path>
                    <path d="M122.478,46.408 L122.478,45.5 C122.478,44.802 122.428,44.757 121.914,44.717 L121.914,44.57 L123.605,44.57 L123.605,44.717 C123.065,44.757 123.015,44.802 123.015,45.5 L123.015,47.805 C123.015,48.503 123.065,48.546 123.59,48.586 L123.59,48.732 L121.864,48.732 L121.864,48.586 C122.428,48.546 122.478,48.503 122.478,47.805 L122.478,46.665 L120.255,46.665 L120.255,47.805 C120.255,48.503 120.306,48.546 120.833,48.586 L120.833,48.732 L119.141,48.732 L119.141,48.586 C119.668,48.546 119.721,48.503 119.721,47.805 L119.721,45.5 C119.721,44.802 119.668,44.757 119.117,44.717 L119.117,44.57 L120.806,44.57 L120.806,44.717 C120.306,44.757 120.255,44.802 120.255,45.5 L120.255,46.408 L122.478,46.408" id="Fill-34"></path>
                    <path d="M125.352,43.49 C125.9,43.49 126.337,43.936 126.337,44.49 C126.337,45.057 125.9,45.499 125.349,45.499 C124.802,45.499 124.355,45.057 124.355,44.49 C124.355,43.936 124.802,43.49 125.349,43.49 L125.352,43.49 Z M125.349,43.646 C124.908,43.646 124.546,44.024 124.546,44.49 C124.546,44.968 124.908,45.342 125.352,45.342 C125.798,45.347 126.155,44.968 126.155,44.496 C126.155,44.024 125.798,43.646 125.352,43.646 L125.349,43.646 Z M125.162,45.076 L124.985,45.076 L124.985,43.957 C125.078,43.945 125.166,43.93 125.3,43.93 C125.468,43.93 125.58,43.967 125.649,44.015 C125.713,44.067 125.748,44.14 125.748,44.248 C125.748,44.394 125.65,44.483 125.53,44.518 L125.53,44.527 C125.63,44.545 125.696,44.635 125.719,44.798 C125.747,44.972 125.772,45.039 125.79,45.076 L125.603,45.076 C125.576,45.039 125.55,44.938 125.527,44.791 C125.499,44.647 125.429,44.594 125.287,44.594 L125.162,44.594 L125.162,45.076 Z M125.162,44.455 L125.291,44.455 C125.438,44.455 125.563,44.404 125.563,44.265 C125.563,44.166 125.492,44.069 125.291,44.069 C125.233,44.069 125.194,44.073 125.162,44.078 L125.162,44.455 Z" id="Fill-35"></path>
                </g>
                <path d="M142.5,0.5 L142.5,49.5" id="Line-3-Copy" stroke="#979797" stroke-linecap="square"></path>
                <g id="Group-3-Copy-8" transform="translate(157.000000, 9.000000)">
                    <path d="M62.3745547,23.2368065 C62.6520183,23.2368065 62.8979483,23.3441577 63.112352,23.5588633 L65.1176471,25.7374831 C64.0077927,27.1141251 62.6425661,28.1686928 61.0219264,28.9012179 C59.4012868,29.6337429 57.4559178,30 55.185761,30 C53.155232,30 51.329675,29.6526873 49.7090353,28.9580514 C48.0883957,28.2634156 46.7042514,27.2972547 45.5565611,26.0595399 C44.4088707,24.8218251 43.5291982,23.3441674 42.9175171,21.6265223 C42.305836,19.9088773 42,18.0333886 42,16 C42,13.9413519 42.3279066,12.0563911 42.9837297,10.3450609 C43.6395527,8.63373073 44.5633665,7.15923037 45.7551988,5.92151556 C46.9470311,4.68380076 48.3690107,3.72079731 50.0211803,3.03247632 C51.6733499,2.34415533 53.5020599,2 55.507365,2 C57.5000581,2 59.268862,2.32836839 60.8138298,2.98511502 C62.3587976,3.64186165 63.6735769,4.50067129 64.7582074,5.56156969 L63.0555983,7.92963464 C62.9547025,8.08119156 62.8254316,8.21380187 62.6677818,8.32746955 C62.5101321,8.44113724 62.2925786,8.49797023 62.015115,8.49797023 C61.8259353,8.49797023 61.6304525,8.44429463 61.4286608,8.33694181 C61.2268691,8.229589 61.0061627,8.09697869 60.7665351,7.9391069 C60.5269074,7.78123512 60.249448,7.60757876 59.9341485,7.41813261 C59.6188489,7.22868647 59.2531069,7.05503011 58.8369115,6.89715832 C58.4207161,6.73928654 57.9383151,6.60667622 57.3896938,6.49932341 C56.8410726,6.3919706 56.2073301,6.33829499 55.4884471,6.33829499 C54.2650849,6.33829499 53.1457883,6.55615479 52.1305237,6.99188092 C51.1152592,7.42760705 50.2418926,8.05908472 49.5103976,8.88633288 C48.7789027,9.71358104 48.211372,10.7239453 47.8077886,11.917456 C47.4042052,13.1109667 47.2024165,14.4718011 47.2024165,16 C47.2024165,17.5408286 47.4199699,18.9111352 47.8550833,20.1109608 C48.2901966,21.3107863 48.879798,22.3211506 49.6239049,23.1420839 C50.3680118,23.9630172 51.2445314,24.5913375 52.2534899,25.0270636 C53.2624485,25.4627897 54.3470626,25.6806495 55.507365,25.6806495 C56.201024,25.6806495 56.8284607,25.6427609 57.3896938,25.5669824 C57.950927,25.491204 58.4680105,25.3712232 58.9409599,25.2070365 C59.4139092,25.0428499 59.8616278,24.8313049 60.2841292,24.5723951 C60.7066306,24.3134854 61.1259727,23.9945892 61.5421681,23.6156969 C61.6682879,23.5020292 61.8007117,23.4104649 61.9394435,23.3410014 C62.0781753,23.2715378 62.223211,23.2368065 62.3745547,23.2368065 Z M94.540107,16 C94.540107,18.0081291 94.2053838,19.8678309 93.5359274,21.579161 C92.8664711,23.2904912 91.9196827,24.7713063 90.6955339,26.0216509 C89.4713852,27.2719954 87.9986033,28.2476284 86.2771441,28.9485792 C84.5556848,29.6495299 82.6429811,30 80.5389754,30 C78.4477212,30 76.5413931,29.6495299 74.8199339,28.9485792 C73.0984747,28.2476284 71.622505,27.2719954 70.3919804,26.0216509 C69.1614559,24.7713063 68.2082918,23.2904912 67.5324597,21.579161 C66.8566276,19.8678309 66.5187166,18.0081291 66.5187166,16 C66.5187166,13.9918709 66.8566276,12.1321691 67.5324597,10.420839 C68.2082918,8.70950881 69.1614559,7.22869367 70.3919804,5.97834912 C71.622505,4.72800457 73.0984747,3.75237157 74.8199339,3.05142084 C76.5413931,2.35047011 78.4477212,2 80.5389754,2 C81.9416458,2 83.2614114,2.16102681 84.4983118,2.48308525 C85.7352121,2.80514369 86.870083,3.25980762 87.9029585,3.84709066 C88.935834,4.43437371 89.8634954,5.14794348 90.6859703,5.98782138 C91.5084453,6.82769928 92.2065822,7.76544363 92.7804019,8.80108254 C93.3542216,9.83672146 93.7909557,10.9607517 94.0906171,12.173207 C94.3902785,13.3856624 94.540107,14.6612473 94.540107,16 Z M89.6363636,16.0096173 C89.6363636,14.4836692 89.4322025,13.1148245 89.0238742,11.9030422 C88.6155459,10.6912599 88.0349628,9.66222209 87.2821075,8.81589794 C86.5292522,7.96957379 85.6137172,7.32201729 84.5354753,6.87320903 C83.4572333,6.42440077 82.2418368,6.2 80.8892493,6.2 C79.5366618,6.2 78.3212652,6.42440077 77.2430233,6.87320903 C76.1647813,7.32201729 75.2460564,7.96957379 74.486821,8.81589794 C73.7275855,9.66222209 73.1438124,10.6912599 72.7354841,11.9030422 C72.3271557,13.1148245 72.1229947,14.4836692 72.1229947,16.0096173 C72.1229947,17.5355654 72.3271557,18.90441 72.7354841,20.1161923 C73.1438124,21.3279747 73.7275855,22.3538067 74.486821,23.1937193 C75.2460564,24.0336319 76.1647813,24.6779827 77.2430233,25.126791 C78.3212652,25.5755992 79.5366618,25.8 80.8892493,25.8 C82.2418368,25.8 83.4572333,25.5755992 84.5354753,25.126791 C85.6137172,24.6779827 86.5292522,24.0336319 87.2821075,23.1937193 C88.0349628,22.3538067 88.6155459,21.3279747 89.0238742,20.1161923 C89.4322025,18.90441 89.6363636,17.5355654 89.6363636,16.0096173 Z M107.630787,15.3 C108.620961,15.3 109.484093,15.1799318 110.22021,14.9397917 C110.956326,14.6996516 111.562147,14.3678841 112.037691,13.9444792 C112.513236,13.5210743 112.86826,13.0186835 113.102775,12.4372917 C113.33729,11.8558999 113.454545,11.2176424 113.454545,10.5225 C113.454545,9.13221527 112.982265,8.06423984 112.037691,7.31854167 C111.093117,6.57284349 109.65022,6.2 107.708958,6.2 L104.347594,6.2 L104.347594,15.3 L107.630787,15.3 Z M121.160428,29.3 L116.486266,29.3 C115.601441,29.3 114.960273,28.9601694 114.562743,28.2804979 L108.715232,19.5392116 C108.497232,19.2119624 108.256794,18.9791155 107.993911,18.8406639 C107.731028,18.7022123 107.343122,18.6329876 106.83018,18.6329876 L104.618128,18.6329876 L104.618128,29.3 L99.4438503,29.3 L99.4438503,2 L107.926588,2 C109.81165,2 111.430599,2.19194137 112.783484,2.57582988 C114.136369,2.95971838 115.245589,3.49778354 116.111179,4.19004149 C116.976769,4.88229945 117.614731,5.70984996 118.025085,6.67271784 C118.435439,7.63558573 118.640612,8.69598315 118.640612,9.85394191 C118.640612,10.772757 118.502761,11.6412131 118.227055,12.4593361 C117.951348,13.2774591 117.553824,14.020052 117.03447,14.6871369 C116.515117,15.3542219 115.873949,15.9394857 115.110947,16.4429461 C114.347946,16.9464064 113.479163,17.3428755 112.504573,17.6323651 C112.837986,17.8211628 113.145746,18.0445699 113.427864,18.3025934 C113.709982,18.5606168 113.96645,18.865835 114.197274,19.2182573 L121.160428,29.3 Z M132.149503,15.3 C133.139677,15.3 134.00281,15.1799318 134.738926,14.9397917 C135.475043,14.6996516 136.080864,14.3678841 136.556408,13.9444792 C137.031952,13.5210743 137.386976,13.0186835 137.621491,12.4372917 C137.856006,11.8558999 137.973262,11.2176424 137.973262,10.5225 C137.973262,9.13221527 137.500982,8.06423984 136.556408,7.31854167 C135.611834,6.57284349 134.168937,6.2 132.227674,6.2 L128.86631,6.2 L128.86631,15.3 L132.149503,15.3 Z M145.679144,29.3 L141.004983,29.3 C140.120158,29.3 139.47899,28.9601694 139.08146,28.2804979 L133.233949,19.5392116 C133.015949,19.2119624 132.775511,18.9791155 132.512628,18.8406639 C132.249745,18.7022123 131.861838,18.6329876 131.348896,18.6329876 L129.136844,18.6329876 L129.136844,29.3 L123.962567,29.3 L123.962567,2 L132.445304,2 C134.330367,2 135.949316,2.19194137 137.302201,2.57582988 C138.655085,2.95971838 139.764306,3.49778354 140.629896,4.19004149 C141.495486,4.88229945 142.133448,5.70984996 142.543801,6.67271784 C142.954155,7.63558573 143.159329,8.69598315 143.159329,9.85394191 C143.159329,10.772757 143.021478,11.6412131 142.745771,12.4593361 C142.470065,13.2774591 142.072541,14.020052 141.553187,14.6871369 C141.033833,15.3542219 140.392665,15.9394857 139.629664,16.4429461 C138.866662,16.9464064 137.99788,17.3428755 137.02329,17.6323651 C137.356702,17.8211628 137.664463,18.0445699 137.946581,18.3025934 C138.228699,18.5606168 138.485166,18.865835 138.71599,19.2182573 L145.679144,29.3 Z M173,15.65 C173,17.6512548 172.662648,19.4888575 171.987935,21.1628631 C171.313221,22.8368687 170.364817,24.2780023 169.142694,25.4863071 C167.920571,26.6946119 166.450227,27.6322927 164.731617,28.2993776 C163.013006,28.9664625 161.103468,29.3 159.002945,29.3 L148.481283,29.3 L148.481283,2 L159.002945,2 C161.103468,2 163.013006,2.33668405 164.731617,3.01006224 C166.450227,3.68344043 167.920571,4.62112124 169.142694,5.82313278 C170.364817,7.02514432 171.313221,8.46313133 171.987935,10.1371369 C172.662648,11.8111425 173,13.6487452 173,15.65 Z M167.395722,16 C167.395722,14.4725529 167.196385,13.1023636 166.797704,11.889391 C166.399024,10.6764183 165.823161,9.64957853 165.070098,8.80884086 C164.317036,7.9681032 163.40578,7.32311947 162.336304,6.87387033 C161.266828,6.4246212 160.061313,6.2 158.719722,6.2 L153.385027,6.2 L153.385027,25.8 L158.719722,25.8 C160.061313,25.8 161.266828,25.5753788 162.336304,25.1261297 C163.40578,24.6768805 164.317036,24.0318968 165.070098,23.1911591 C165.823161,22.3504215 166.399024,21.3235817 166.797704,20.110609 C167.196385,18.8976364 167.395722,17.5274471 167.395722,16 Z" id="CORRD-Copy" fill="#004E99"></path>
                    <g id="Group">
                        <mask id="mask-2" fill="white">
                            <use xlink:href="#path-1"></use>
                        </mask>
                        <g id="Mask"></g>
                        <g mask="url(#mask-2)">
                            <g transform="translate(0.000000, -4.212766)">
                                <g id="Group-2" stroke-width="1" fill="none" fill-rule="evenodd" transform="translate(0.000000, 4.212766)">
                                    <polygon id="Rectangle-9-Copy" fill="#4A90E2" points="0 0 19.6595745 0 15.8759574 7.72340426 0 7.72340426"></polygon>
                                    <polygon id="Rectangle-9-Copy-7" fill="#D06F1A" points="0 25.2765957 12.4458847 25.2765957 18.2553191 33 0 33"></polygon>
                                    <rect id="Rectangle-9-Copy-8" fill="#FFCC01" x="0" y="12.6382979" width="11.2340426" height="7.72340426"></rect>
                                    <polygon id="Rectangle-9-Copy-9" fill="#2CAFA4" points="15.4468085 25.2765957 33 25.2765957 33 33 19.2978594 33"></polygon>
                                    <polygon id="Rectangle-9-Copy-10" fill="#AC13AC" points="24.4992564 0 33 0 33 7.72340426 15.4468085 7.72340426"></polygon>
                                    <polygon id="Rectangle-9-Copy-11" fill="#4A90E2" points="14.0425532 12.6382979 33 12.6382979 33 20.3617021 14.0425532 20.3617021"></polygon>
                                </g>
                                <path d="M31.9468085,41.4255319 C19.3441405,41.4255319 9.12765957,32.1521107 9.12765957,20.712766 C9.12765957,9.27342119 19.3441405,0 31.9468085,0 C44.5494765,0 54.7659574,9.27342119 54.7659574,20.712766 C54.7659574,32.1521107 44.5494765,41.4255319 31.9468085,41.4255319 Z M32.2978723,37.212766 C42.3800067,37.212766 50.5531915,29.8254643 50.5531915,20.712766 C50.5531915,11.6000676 42.3800067,4.21276596 32.2978723,4.21276596 C22.215738,4.21276596 14.0425532,11.6000676 14.0425532,20.712766 C14.0425532,29.8254643 22.215738,37.212766 32.2978723,37.212766 Z" id="Oval" fill="#FFFFFF" fill-rule="nonzero"></path>
                            </g>
                        </g>
                    </g>
                </g>
            </g>
        </g>
    </g>
</svg>