<?xml version="1.0" encoding="UTF-8"?>
<svg width="72px" height="56px" viewBox="0 0 72 56" version="1.1" xmlns="http://www.w3.org/2000/svg" xmlns:xlink="http://www.w3.org/1999/xlink">
    <!-- Generator: sketchtool 50.2 (55047) - http://www.bohemiancoding.com/sketch -->
    <title>880D57C0-D0C1-4FAC-818F-157F1F3D61E0@2x</title>
    <desc>Created with sketchtool.</desc>
    <defs></defs>
    <g id="Style-Guide" stroke="none" stroke-width="1" fill="none" fill-rule="evenodd">
        <g id="UI-elements-and-hover-over-states" transform="translate(-1753.000000, -716.000000)">
            <g id="Group-5" transform="translate(1561.000000, 711.000000)">
                <g id="how-to-icon" transform="translate(192.000000, 5.000000)">
                    <path d="M31.9294308,32.1093581 C32.5151709,32.420251 33.2270768,32.3887153 33.7813158,32.0192437 L44.5950324,24.8100993 C45.0951625,24.4766793 45.3970468,23.9134663 45.3970468,23.3096745 C45.3970468,22.7058827 45.0951625,22.1427159 44.5950324,21.8092497 L33.7813158,14.6001053 C33.2271114,14.2306395 32.5151593,14.1990923 31.9294308,14.509991 C31.3436907,14.825394 30.9787234,15.4336612 30.9787234,16.1005013 L30.9787234,30.5187901 C30.9787234,31.1856302 31.3436907,31.7939436 31.9294308,32.1093004 L31.9294308,32.1093581 Z M34.5833187,19.4708628 L40.3506342,23.3097034 L34.5833187,27.1485439 L34.5833187,19.4708628 Z" id="Shape" fill="#FFFFFF" fill-rule="nonzero"></path>
                    <path d="M36.4760094,39.590035 C43.0363308,39.590035 48.9518664,35.6385011 51.4618021,29.5783213 C53.9715071,23.5136429 52.5837295,16.5384209 47.9473153,11.8980388 C43.3064719,7.26169383 36.3319419,5.87384702 30.2670329,8.38355204 C24.2068531,10.8932571 20.2553191,16.809254 20.2553191,23.3693447 C20.26433,32.3221793 27.5230595,39.5812687 36.4753173,39.5893429 L36.4760094,39.590035 Z M36.4760094,10.7534573 C41.5765079,10.7534573 46.1768648,13.8263984 48.1317541,18.5393333 C50.0827216,23.2567667 49.00586,28.6817344 45.3967777,32.2909204 C41.7876955,35.9001065 36.3628547,36.9768643 31.6451906,35.0258968 C26.9322557,33.0704308 23.8593146,28.4700739 23.8593146,23.3701521 C23.8683255,16.4042731 29.5094383,10.7628004 36.4758941,10.7535727 L36.4760094,10.7534573 Z" id="Shape" fill="#FFFFFF" fill-rule="nonzero"></path>
                    <path d="M19.7649389,48.9112721 C21.0490894,48.9067666 22.2295435,48.2218933 22.8693695,47.108986 L64.8219761,47.108986 L64.8219761,43.5044138 L22.8693695,43.5044138 C22.2340651,42.3915064 21.0490894,41.7021277 19.7649389,41.7021277 C18.4807884,41.7021277 17.2958358,42.3915064 16.6605083,43.5044138 L7.14893617,43.5044138 L7.14893617,47.108986 L16.6605083,47.108986 C17.3003227,48.2218933 18.4807884,48.9067736 19.7649389,48.9112721 Z" id="Shape" fill="#FFFFFF" fill-rule="nonzero"></path>
                    <rect id="Rectangle-15" stroke="#FFFFFF" stroke-width="3" x="1.5" y="1.5" width="68.4893617" height="53"></rect>
                </g>
            </g>
        </g>
    </g>
</svg>