<?xml version="1.0" encoding="UTF-8"?>
<svg width="56px" height="56px" viewBox="0 0 56 56" version="1.1" xmlns="http://www.w3.org/2000/svg" xmlns:xlink="http://www.w3.org/1999/xlink">
    <!-- Generator: sketchtool 50.2 (55047) - http://www.bohemiancoding.com/sketch -->
    <title>3F273C1F-7339-4938-A1EC-FF71878A39E0</title>
    <desc>Created with sketchtool.</desc>
    <defs></defs>
    <g id="Style-Guide" stroke="none" stroke-width="1" fill="none" fill-rule="evenodd">
        <g id="UI-elements-and-hover-over-states" transform="translate(-1392.000000, -908.000000)">
            <g id="Group-4-Copy" transform="translate(1140.000000, 907.000000)">
                <g id="why-icon" transform="translate(252.000000, 1.000000)">
                    <g id="np_question_888723_000000" transform="translate(17.379310, 11.000000)" fill="#FFFFFF" fill-rule="nonzero">
                        <path d="M12.900891,26 L9.21517494,26 L9.21517494,17.7179066 L10.5975397,17.3333241 C10.872283,17.3333241 16.5866071,15.7932005 16.5866071,10.5932032 C16.5866071,5.5864148 13.0840267,3.85308239 10.1361616,3.85308239 C7.0033914,3.85308239 3.68571609,5.5864148 3.68571609,10.5932032 L0,10.5932032 C0,4.23765107 4.0555263,0 10.137931,0 C16.1287679,0 20.2758621,4.33333102 20.2758621,10.5932032 C20.2758621,16.275298 16.0372001,19.4530741 12.9026605,20.704309 L12.900891,26 Z" id="Shape"></path>
                        <polygon id="Shape" points="9.65517241 29 13.5172414 29 13.5172414 33 9.65517241 33"></polygon>
                    </g>
                    <rect id="Rectangle-16" stroke="#FFFFFF" stroke-width="3" x="1.5" y="1.5" width="53" height="53"></rect>
                </g>
            </g>
        </g>
    </g>
</svg>