<?xml version="1.0" encoding="UTF-8"?>
<svg width="321px" height="49px" viewBox="0 0 321 49" version="1.1" xmlns="http://www.w3.org/2000/svg" xmlns:xlink="http://www.w3.org/1999/xlink">
    <!-- Generator: Sketch 51.3 (57544) - http://www.bohemiancoding.com/sketch -->
    <title>CORRD logo white</title>
    <desc>Created with Sketch.</desc>
    <defs>
        <rect id="path-1" x="0" y="0" width="31" height="31"></rect>
    </defs>
    <g id="Symbols" stroke="none" stroke-width="1" fill="none" fill-rule="evenodd">
        <g id="Dashboard-Header" transform="translate(-135.000000, -15.000000)">
            <g id="CORRD-logo-white" transform="translate(135.000000, 15.000000)">
                <g id="Group-3" transform="translate(157.000000, 9.000000)">
                    <path d="M59.2858381,22.7198917 C59.5484754,22.7198917 59.781264,22.819575 59.984211,23.0189445 L61.8823529,25.0419486 C60.8318037,26.320259 59.5395282,27.2995004 58.0054876,27.9797023 C56.471447,28.6599042 54.630029,29 52.4811784,29 C50.5591509,29 48.8311427,28.6774953 47.2971021,28.0324763 C45.7630616,27.3874573 44.4528792,26.490308 43.3665158,25.3410014 C42.2801525,24.1916947 41.4474853,22.819584 40.8684895,21.2246279 C40.2894936,19.6296718 40,17.8881466 40,16 C40,14.0883982 40.3103849,12.3380774 40.931164,10.7489851 C41.551943,9.15989282 42.4263927,7.79071391 43.5545393,6.64140731 C44.6826859,5.4921007 46.0286819,4.59788321 47.5925676,3.95872801 C49.1564534,3.31957281 50.887446,3 52.7855974,3 C54.6718107,3 56.3460984,3.3049135 57.8085106,3.91474966 C59.2709229,4.52458582 60.5154469,5.32205191 61.54212,6.30717185 L59.93049,8.50608931 C59.8349856,8.64682073 59.7126223,8.76995888 59.5633966,8.87550744 C59.4141708,8.98105601 59.2082424,9.0338295 58.9456051,9.0338295 C58.7665342,9.0338295 58.5814971,8.98398787 58.3904881,8.88430311 C58.1994792,8.78461836 57.9905663,8.66148021 57.7637431,8.51488498 C57.53692,8.36828975 57.2742867,8.20703742 56.9758352,8.03112314 C56.6773837,7.85520886 56.3311852,7.69395653 55.9372292,7.5473613 C55.5432733,7.40076607 55.0866494,7.27762792 54.5673438,7.17794317 C54.0480382,7.07825841 53.4481598,7.02841678 52.7676904,7.02841678 C51.6096986,7.02841678 50.5502118,7.23071516 49.589198,7.635318 C48.6281843,8.03992083 47.8014861,8.62629296 47.1090787,9.39445196 C46.4166712,10.162611 45.8794666,11.1008064 45.4974487,12.2090663 C45.1154308,13.3173262 44.9244248,14.5809582 44.9244248,16 C44.9244248,17.4307694 45.1303532,18.703197 45.5422162,19.8173207 C45.9540793,20.9314445 46.5121752,21.8696399 47.2165207,22.631935 C47.9208661,23.3942302 48.7505488,23.9776705 49.7055935,24.3822733 C50.6606383,24.7868762 51.6872959,24.9891746 52.7855974,24.9891746 C53.4421906,24.9891746 54.0361002,24.9539922 54.5673438,24.8836265 C55.0985874,24.8132608 55.5880405,24.7018501 56.0357177,24.5493911 C56.4833949,24.396932 56.9071897,24.2004974 57.3071147,23.9600812 C57.7070396,23.719665 58.1039742,23.4235471 58.4979301,23.0717185 C58.6173107,22.96617 58.7426584,22.881146 58.8739771,22.8166441 C59.0052957,22.7521422 59.1425814,22.7198917 59.2858381,22.7198917 Z M89.7326203,16 C89.7326203,17.8646913 89.4157831,19.5915572 88.7820992,21.1806495 C88.1484154,22.7697418 87.2522187,24.1447845 86.0934825,25.3058187 C84.9347463,26.4668529 83.5406626,27.3727978 81.9111898,28.0236806 C80.281717,28.6745635 78.4712187,29 76.4796408,29 C74.5001331,29 72.6956698,28.6745635 71.066197,28.0236806 C69.4367242,27.3727978 68.039623,26.4668529 66.8748517,25.3058187 C65.7100804,24.1447845 64.8078488,22.7697418 64.1681298,21.1806495 C63.5284108,19.5915572 63.2085561,17.8646913 63.2085561,16 C63.2085561,14.1353087 63.5284108,12.4084428 64.1681298,10.8193505 C64.8078488,9.23025818 65.7100804,7.85521555 66.8748517,6.69418133 C68.039623,5.5331471 69.4367242,4.62720217 71.066197,3.97631935 C72.6956698,3.32543653 74.5001331,3 76.4796408,3 C77.8073594,3 79.0566032,3.14952489 80.2274096,3.44857916 C81.398216,3.74763343 82.472445,4.16982136 83.4501287,4.71515562 C84.4278124,5.26048987 85.305904,5.92309037 86.0844299,6.702977 C86.8629558,7.48286362 87.5237877,8.35362622 88.0669453,9.31529093 C88.6101029,10.2769556 89.0235,11.320698 89.307149,12.4465494 C89.590798,13.5724008 89.7326203,14.7568724 89.7326203,16 Z M85.0909091,16.0089303 C85.0909091,14.5919785 84.8976574,13.3209085 84.5111481,12.195682 C84.1246389,11.0704556 83.5750793,10.1149205 82.8624529,9.32904809 C82.1498265,8.54317566 81.2832133,7.9418732 80.2625873,7.52512267 C79.2419613,7.10837214 78.0915097,6.9 76.8111978,6.9 C75.5308859,6.9 74.3804343,7.10837214 73.3598083,7.52512267 C72.3391823,7.9418732 71.4695496,8.54317566 70.750884,9.32904809 C70.0322183,10.1149205 69.4796392,11.0704556 69.0931299,12.195682 C68.7066207,13.3209085 68.513369,14.5919785 68.513369,16.0089303 C68.513369,17.4258821 68.7066207,18.6969522 69.0931299,19.8221786 C69.4796392,20.947405 70.0322183,21.8999634 70.750884,22.6798822 C71.4695496,23.4598011 72.3391823,24.0581268 73.3598083,24.4748773 C74.3804343,24.8916279 75.5308859,25.1 76.8111978,25.1 C78.0915097,25.1 79.2419613,24.8916279 80.2625873,24.4748773 C81.2832133,24.0581268 82.1498265,23.4598011 82.8624529,22.6798822 C83.5750793,21.8999634 84.1246389,20.947405 84.5111481,19.8221786 C84.8976574,18.6969522 85.0909091,17.4258821 85.0909091,16.0089303 Z M102.123798,15.35 C103.061062,15.35 103.878073,15.2385081 104.574855,15.0155208 C105.271637,14.7925336 105.845086,14.4844638 106.295219,14.0913021 C106.745353,13.6981404 107.081406,13.2316346 107.30339,12.6917708 C107.525373,12.151907 107.636364,11.5592393 107.636364,10.91375 C107.636364,9.62277132 107.18932,8.63107985 106.295219,7.93864583 C105.401119,7.24621182 104.035323,6.9 102.197792,6.9 L99.0160428,6.9 L99.0160428,15.35 L102.123798,15.35 Z M114.930481,28.35 L110.506084,28.35 C109.66854,28.35 109.061633,28.034443 108.685345,27.4033195 L103.150296,19.2864108 C102.943945,18.9825365 102.716355,18.7663215 102.467519,18.6377593 C102.218683,18.5091971 101.851504,18.444917 101.365971,18.444917 L99.272121,18.444917 L99.272121,28.35 L94.3743316,28.35 L94.3743316,3 L102.403793,3 C104.188127,3 105.720567,3.17823127 107.00116,3.53469917 C108.281754,3.89116707 109.331703,4.390799 110.15104,5.03360996 C110.970377,5.67642092 111.574249,6.44486067 111.962676,7.33895228 C112.351102,8.23304389 112.545312,9.21769863 112.545312,10.2929461 C112.545312,11.1461315 112.414827,11.952555 112.153853,12.7122407 C111.892879,13.4719263 111.516597,14.1614768 111.024995,14.7809129 C110.533393,15.4003489 109.926486,15.9438082 109.204255,16.4113071 C108.482025,16.8788059 107.659666,17.2469558 106.737153,17.5157676 C107.05275,17.6910797 107.344065,17.8985292 107.611108,18.1381224 C107.878151,18.3777156 108.120914,18.6611325 108.339404,18.9883817 L114.930481,28.35 Z M125.332354,15.35 C126.269618,15.35 127.086629,15.2385081 127.783411,15.0155208 C128.480193,14.7925336 129.053642,14.4844638 129.503775,14.0913021 C129.953909,13.6981404 130.289962,13.2316346 130.511946,12.6917708 C130.73393,12.151907 130.84492,11.5592393 130.84492,10.91375 C130.84492,9.62277132 130.397876,8.63107985 129.503775,7.93864583 C128.609675,7.24621182 127.243879,6.9 125.406348,6.9 L122.224599,6.9 L122.224599,15.35 L125.332354,15.35 Z M138.139037,28.35 L133.71464,28.35 C132.877096,28.35 132.270189,28.034443 131.893901,27.4033195 L126.358852,19.2864108 C126.152501,18.9825365 125.924911,18.7663215 125.676075,18.6377593 C125.427239,18.5091971 125.060061,18.444917 124.574528,18.444917 L122.480677,18.444917 L122.480677,28.35 L117.582888,28.35 L117.582888,3 L125.612349,3 C127.396683,3 128.929123,3.17823127 130.209717,3.53469917 C131.49031,3.89116707 132.540259,4.390799 133.359596,5.03360996 C134.178933,5.67642092 134.782806,6.44486067 135.171232,7.33895228 C135.559658,8.23304389 135.753869,9.21769863 135.753869,10.2929461 C135.753869,11.1461315 135.623384,11.952555 135.36241,12.7122407 C135.101436,13.4719263 134.725153,14.1614768 134.233551,14.7809129 C133.741949,15.4003489 133.135042,15.9438082 132.412811,16.4113071 C131.690581,16.8788059 130.868222,17.2469558 129.945709,17.5157676 C130.261306,17.6910797 130.552621,17.8985292 130.819664,18.1381224 C131.086708,18.3777156 131.32947,18.6611325 131.54796,18.9883817 L138.139037,28.35 Z M164,15.675 C164,17.533308 163.680675,19.2396534 163.042014,20.7940871 C162.403354,22.3485209 161.505628,23.6867164 160.34881,24.8087137 C159.191991,25.930711 157.800215,26.8014146 156.173439,27.4208506 C154.546663,28.0402866 152.739161,28.35 150.750879,28.35 L140.791444,28.35 L140.791444,3 L150.750879,3 C152.739161,3 154.546663,3.31263519 156.173439,3.93791494 C157.800215,4.56319469 159.191991,5.43389829 160.34881,6.55005187 C161.505628,7.66620544 162.403354,9.00147909 163.042014,10.5559129 C163.680675,12.1103466 164,13.816692 164,15.675 Z M158.695187,16 C158.695187,14.5816563 158.506502,13.3093377 158.129125,12.1830059 C157.751748,11.0566741 157.206656,10.1031801 156.493834,9.32249509 C155.781011,8.54181011 154.918448,7.94289665 153.90612,7.52573674 C152.893792,7.10857683 151.752693,6.9 150.482791,6.9 L145.433155,6.9 L145.433155,25.1 L150.482791,25.1 C151.752693,25.1 152.893792,24.8914232 153.90612,24.4742633 C154.918448,24.0571033 155.781011,23.4581899 156.493834,22.6775049 C157.206656,21.8968199 157.751748,20.9433259 158.129125,19.8169941 C158.506502,18.6906623 158.695187,17.4183437 158.695187,16 Z" id="CORRD-Copy" fill="#FFFFFF"></path>
                    <g id="Group">
                        <mask id="mask-2" fill="white">
                            <use xlink:href="#path-1"></use>
                        </mask>
                        <g id="Mask"></g>
                        <g mask="url(#mask-2)">
                            <g transform="translate(0.000000, -3.957447)">
                                <g id="Group-2" stroke-width="1" fill="none" fill-rule="evenodd" transform="translate(0.000000, 3.957447)">
                                    <polygon id="Rectangle-9-Copy" fill="#4A90E2" points="0 0 18.4680851 0 14.9137782 7.25531915 0 7.25531915"></polygon>
                                    <polygon id="Rectangle-9-Copy-7" fill="#D06F1A" points="0 23.7446809 11.6915887 23.7446809 17.1489362 31 0 31"></polygon>
                                    <rect id="Rectangle-9-Copy-8" fill="#FFCC01" x="0" y="11.8723404" width="10.5531915" height="7.25531915"></rect>
                                    <polygon id="Rectangle-9-Copy-9" fill="#2CAFA4" points="14.5106383 23.7446809 31 23.7446809 31 31 18.1282921 31"></polygon>
                                    <polygon id="Rectangle-9-Copy-10" fill="#AC13AC" points="23.014453 0 31 0 31 7.25531915 14.5106383 7.25531915"></polygon>
                                    <polygon id="Rectangle-9-Copy-11" fill="#4A90E2" points="13.1914894 11.8723404 31 11.8723404 31 19.1276596 13.1914894 19.1276596"></polygon>
                                </g>
                                <path d="M30.0106383,38.9148936 C18.1717684,38.9148936 8.57446809,30.203498 8.57446809,19.4574468 C8.57446809,8.71139567 18.1717684,0 30.0106383,0 C41.8495082,0 51.4468085,8.71139567 51.4468085,19.4574468 C51.4468085,30.203498 41.8495082,38.9148936 30.0106383,38.9148936 Z M30.3404255,34.9574468 C39.8115215,34.9574468 47.4893617,28.0178604 47.4893617,19.4574468 C47.4893617,10.8970332 39.8115215,3.95744681 30.3404255,3.95744681 C20.8693296,3.95744681 13.1914894,10.8970332 13.1914894,19.4574468 C13.1914894,28.0178604 20.8693296,34.9574468 30.3404255,34.9574468 Z" id="Oval" fill="#002248" fill-rule="nonzero"></path>
                            </g>
                        </g>
                    </g>
                </g>
                <g id="B_AIR_Stacked_1-Color_RGB" fill="#FFFFFF">
                    <path d="M55.557,7.787 L55.659,7.787 L60.25,20.622 L51.013,20.622 L55.557,7.787 Z M60.981,35.491 L73.609,35.491 L73.609,34.295 C70.374,34.036 69.699,33.668 68.027,29.285 C65.992,23.963 63.696,17.34 61.24,10.709 L57.539,0.798 L56.341,1.264 L45.589,28.981 C43.764,33.615 43.346,33.929 39.952,34.295 L39.952,35.491 L51.121,35.491 L51.121,34.295 L49.555,34.139 C47.207,33.929 46.736,33.248 47.728,30.221 C48.46,28.03 49.816,23.963 50.337,22.609 L60.931,22.609 C62.391,26.363 63.904,30.438 64.271,31.686 C64.794,33.302 64.586,33.874 62.653,34.086 L60.981,34.295 L60.981,35.491 Z" id="Fill-1"></path>
                    <path d="M84.804,27.929 C84.804,33.615 85.223,33.981 89.499,34.295 L89.499,35.491 L75.726,35.491 L75.726,34.295 C80.007,33.981 80.422,33.615 80.422,27.929 L80.422,9.145 C80.422,3.454 80.007,3.086 75.726,2.784 L75.726,1.577 L89.499,1.577 L89.499,2.784 C85.223,3.086 84.804,3.454 84.804,9.145 L84.804,27.929" id="Fill-2"></path>
                    <path d="M100.932,4.656 C100.932,3.612 101.089,3.352 101.399,3.25 C101.817,3.089 102.544,2.984 104.324,2.984 C108.232,2.984 112.2,5.175 112.2,10.66 C112.2,13.218 111.419,15.769 109.177,17.547 C107.767,18.691 106.096,18.949 103.955,18.949 L100.932,18.949 L100.932,4.656 Z M100.932,20.47 L103.75,20.47 C105.368,20.47 106.203,20.985 107.035,22.344 C108.494,24.797 110.689,28.66 112.306,31.004 C114.287,33.879 116.114,35.701 122.114,35.86 L122.849,35.86 L122.948,34.865 C121.068,34.398 120.131,33.561 119.034,32.26 C117.628,30.693 116.531,29.282 114.655,26.52 C113.09,24.222 110.95,20.622 110.009,19.055 C114.233,17.331 116.898,14.258 116.898,9.928 C116.898,6.901 115.537,4.552 113.452,3.25 C111.523,1.945 108.548,1.477 105.205,1.477 L91.955,1.477 L91.955,2.674 C96.133,2.984 96.544,3.352 96.544,9.039 L96.544,27.827 C96.544,33.511 96.133,33.879 91.75,34.188 L91.75,35.388 L105.629,35.388 L105.629,34.188 C101.35,33.879 100.932,33.511 100.932,27.827 L100.932,20.47 Z" id="Fill-3"></path>
                    <path d="M120.714,1.323 C121.913,1.323 122.87,2.3 122.87,3.521 C122.87,4.762 121.913,5.73 120.703,5.73 C119.503,5.73 118.526,4.762 118.526,3.521 C118.526,2.3 119.503,1.323 120.703,1.323 L120.714,1.323 Z M120.703,1.666 C119.737,1.666 118.948,2.495 118.948,3.521 C118.948,4.567 119.737,5.385 120.714,5.385 C121.69,5.396 122.472,4.567 122.472,3.531 C122.472,2.495 121.69,1.666 120.714,1.666 L120.703,1.666 Z M120.292,4.801 L119.904,4.801 L119.904,2.348 C120.107,2.321 120.303,2.291 120.594,2.291 C120.964,2.291 121.211,2.37 121.356,2.474 C121.504,2.584 121.581,2.748 121.581,2.984 C121.581,3.306 121.365,3.5 121.105,3.581 L121.105,3.599 C121.317,3.637 121.467,3.831 121.514,4.194 C121.572,4.576 121.628,4.722 121.671,4.801 L121.257,4.801 C121.199,4.722 121.143,4.497 121.095,4.175 C121.035,3.864 120.876,3.745 120.566,3.745 L120.292,3.745 L120.292,4.801 Z M120.292,3.443 L120.577,3.443 C120.897,3.443 121.17,3.324 121.17,3.021 C121.17,2.807 121.015,2.594 120.577,2.594 C120.451,2.594 120.363,2.603 120.292,2.613 L120.292,3.443 Z" id="Fill-4"></path>
                    <path d="M0.686,35.831 L36.095,35.831 L36.095,0.422 L0.686,0.422 L0.686,35.831 Z M8.365,33.56 L6.984,33.56 L6.984,28.526 C6.984,25.633 5.882,23.29 4.519,23.29 C3.961,23.29 3.45,23.684 3.04,24.342 C3.44,22.385 4.436,20.993 5.608,20.993 C7.129,20.993 8.365,23.337 8.365,26.232 L8.365,33.56 Z M14.178,33.56 L12.915,33.56 L12.915,27.627 C12.915,25.298 12.009,23.409 10.892,23.409 C10.467,23.409 10.073,23.687 9.748,24.162 C9.993,22.33 10.872,20.974 11.926,20.974 C13.171,20.974 14.178,22.862 14.178,25.19 L14.178,33.56 Z M18.254,33.56 L17.218,33.56 L17.218,27.642 C17.218,25.235 16.683,23.279 16.017,23.279 C15.761,23.279 15.524,23.571 15.33,24.06 C15.522,22.288 16.087,21.005 16.76,21.005 C17.582,21.005 18.254,22.957 18.254,25.367 L18.254,33.56 Z M21.789,33.56 L20.933,33.56 L20.933,27.29 C20.933,25.089 20.492,23.302 19.95,23.302 C19.749,23.302 19.56,23.551 19.403,23.982 C19.541,22.278 20.013,21.023 20.575,21.023 C21.247,21.023 21.789,22.811 21.789,25.015 L21.789,33.56 Z M33.727,33.473 L22.419,33.473 L22.419,19.96 L2.968,19.96 L2.968,18.529 L23.527,18.529 L23.527,18.199 C22.219,16.646 18.104,16.785 18.104,16.785 L2.968,16.676 L2.968,15.464 L26.253,15.464 L26.253,15.21 C25.018,13.579 20.761,13.719 20.761,13.719 L2.968,13.592 L2.968,12.311 L28.675,12.311 L28.675,7.653 L2.968,7.653 L2.968,2.713 L33.727,2.713 L33.727,33.473 Z" id="Fill-5"></path>
                    <path d="M2.589,44.733 L2.604,44.733 L3.267,46.584 L1.934,46.584 L2.589,44.733 Z M3.372,48.732 L5.196,48.732 L5.196,48.559 C4.729,48.521 4.63,48.469 4.39,47.835 C4.094,47.068 3.765,46.113 3.409,45.152 L2.876,43.723 L2.701,43.791 L1.151,47.79 C0.887,48.461 0.827,48.504 0.337,48.559 L0.337,48.732 L1.949,48.732 L1.949,48.559 L1.723,48.537 C1.383,48.504 1.317,48.408 1.459,47.972 C1.565,47.656 1.761,47.068 1.835,46.871 L3.365,46.871 C3.576,47.414 3.796,48.001 3.846,48.182 C3.923,48.417 3.893,48.497 3.614,48.528 L3.372,48.559 L3.372,48.732 Z" id="Fill-6"></path>
                    <path d="M6.734,44.569 L8.284,47.867 L9.806,44.569 L10.863,44.569 L10.863,44.717 C10.307,44.763 10.268,44.788 10.287,45.5 L10.338,47.806 C10.358,48.521 10.377,48.539 10.941,48.586 L10.941,48.732 L9.249,48.732 L9.249,48.586 C9.789,48.539 9.806,48.521 9.8,47.806 L9.777,45.224 L9.749,45.224 L8.181,48.662 L8.021,48.662 L6.542,45.313 L6.529,45.313 L6.465,47.1 C6.439,47.703 6.439,48.053 6.465,48.252 C6.498,48.49 6.65,48.552 7.067,48.586 L7.067,48.732 L5.563,48.732 L5.563,48.586 C5.919,48.552 6.055,48.49 6.1,48.252 C6.137,48.053 6.177,47.669 6.208,47.035 L6.279,45.69 C6.324,44.832 6.279,44.763 5.677,44.717 L5.677,44.569 L6.734,44.569" id="Fill-7"></path>
                    <path d="M12.137,45.5 C12.137,44.802 12.087,44.757 11.575,44.717 L11.575,44.57 L14.379,44.57 C14.384,44.679 14.416,45.146 14.448,45.507 L14.289,45.525 C14.224,45.204 14.156,45.039 14.058,44.935 C13.955,44.827 13.744,44.782 13.356,44.782 L12.868,44.782 C12.689,44.782 12.675,44.795 12.675,44.981 L12.675,46.441 L13.321,46.441 C13.873,46.441 13.892,46.403 13.955,45.927 L14.116,45.927 L14.116,47.196 L13.955,47.196 C13.923,46.958 13.905,46.83 13.821,46.76 C13.738,46.689 13.598,46.677 13.321,46.677 L12.675,46.677 L12.675,47.81 C12.675,48.177 12.714,48.366 12.836,48.443 C12.957,48.521 13.188,48.521 13.488,48.521 C13.853,48.521 14.156,48.49 14.296,48.335 C14.405,48.219 14.507,48.003 14.602,47.709 L14.763,47.728 C14.732,47.904 14.589,48.559 14.539,48.732 L11.51,48.732 L11.51,48.586 C12.087,48.546 12.137,48.503 12.137,47.805 L12.137,45.5" id="Fill-8"></path>
                    <path d="M16.415,44.96 C16.415,44.833 16.433,44.802 16.472,44.788 C16.522,44.769 16.613,44.757 16.83,44.757 C17.31,44.757 17.797,45.025 17.797,45.697 C17.797,46.01 17.701,46.325 17.426,46.543 C17.252,46.684 17.048,46.716 16.786,46.716 L16.415,46.716 L16.415,44.96 Z M16.415,46.902 L16.76,46.902 C16.958,46.902 17.062,46.965 17.163,47.131 C17.342,47.432 17.611,47.905 17.81,48.194 C18.053,48.547 18.278,48.77 19.015,48.79 L19.103,48.79 L19.116,48.669 C18.885,48.612 18.77,48.509 18.636,48.347 C18.463,48.155 18.328,47.983 18.098,47.644 C17.905,47.363 17.643,46.92 17.528,46.726 C18.047,46.516 18.374,46.139 18.374,45.608 C18.374,45.236 18.207,44.948 17.952,44.788 C17.714,44.627 17.348,44.569 16.94,44.569 L15.313,44.569 L15.313,44.717 C15.825,44.757 15.878,44.802 15.878,45.5 L15.878,47.806 C15.878,48.503 15.825,48.547 15.287,48.586 L15.287,48.732 L16.989,48.732 L16.989,48.586 C16.466,48.547 16.415,48.503 16.415,47.806 L16.415,46.902 Z" id="Fill-9"></path>
                    <path d="M20.589,47.805 C20.589,48.503 20.64,48.546 21.164,48.586 L21.164,48.731 L19.476,48.731 L19.476,48.586 C20,48.546 20.052,48.503 20.052,47.805 L20.052,45.5 C20.052,44.802 20,44.757 19.476,44.717 L19.476,44.569 L21.164,44.569 L21.164,44.717 C20.64,44.757 20.589,44.802 20.589,45.5 L20.589,47.805" id="Fill-10"></path>
                    <path d="M25.391,45.621 C25.199,44.884 24.789,44.686 24.161,44.686 C23.01,44.686 22.497,45.558 22.497,46.561 C22.497,47.797 23.131,48.617 24.168,48.617 C24.885,48.617 25.218,48.27 25.532,47.6 L25.692,47.619 C25.609,47.893 25.468,48.406 25.366,48.649 C25.186,48.693 24.611,48.828 24.161,48.828 C22.542,48.828 21.864,47.728 21.864,46.709 C21.864,45.391 22.881,44.475 24.284,44.475 C24.828,44.475 25.258,44.603 25.436,44.64 C25.487,44.994 25.512,45.274 25.55,45.607 L25.391,45.621" id="Fill-11"></path>
                    <path d="M27.913,45.333 L27.928,45.333 L28.49,46.907 L27.356,46.907 L27.913,45.333 Z M28.58,48.732 L30.128,48.732 L30.128,48.586 C29.732,48.552 29.648,48.508 29.444,47.971 C29.194,47.317 28.913,46.505 28.612,45.691 L28.157,44.475 L28.01,44.532 L26.691,47.933 C26.466,48.503 26.414,48.539 26.001,48.586 L26.001,48.732 L27.371,48.732 L27.371,48.586 L27.177,48.565 C26.889,48.539 26.833,48.456 26.953,48.086 C27.043,47.815 27.209,47.317 27.273,47.15 L28.574,47.15 C28.752,47.612 28.939,48.112 28.982,48.265 C29.047,48.464 29.02,48.534 28.785,48.559 L28.58,48.586 L28.58,48.732 Z" id="Fill-12"></path>
                    <path d="M34.341,48.776 L34.174,48.776 L31.397,45.402 L31.383,45.402 L31.383,47.035 C31.383,47.708 31.407,48.054 31.435,48.252 C31.468,48.474 31.641,48.565 32.063,48.585 L32.063,48.732 L30.526,48.732 L30.526,48.585 C30.877,48.572 31.044,48.474 31.077,48.252 C31.102,48.054 31.127,47.708 31.127,47.035 L31.127,45.645 C31.127,45.185 31.121,45.081 31.005,44.936 C30.885,44.783 30.712,44.736 30.442,44.717 L30.442,44.569 L31.377,44.569 L34.074,47.797 L34.085,47.797 L34.085,46.267 C34.085,45.594 34.059,45.248 34.035,45.05 C34.004,44.827 33.83,44.736 33.406,44.717 L33.406,44.569 L34.944,44.569 L34.944,44.717 C34.591,44.731 34.425,44.827 34.393,45.05 C34.367,45.248 34.341,45.594 34.341,46.267 L34.341,48.776" id="Fill-13"></path>
                    <path d="M38.664,47.64 C38.664,48.461 38.723,48.513 39.342,48.559 L39.342,48.732 L37.353,48.732 L37.353,48.559 C37.971,48.513 38.031,48.461 38.031,47.64 L38.031,44.927 C38.031,44.106 37.971,44.054 37.353,44.008 L37.353,43.838 L39.342,43.838 L39.342,44.008 C38.723,44.054 38.664,44.106 38.664,44.927 L38.664,47.64" id="Fill-14"></path>
                    <path d="M43.86,48.776 L43.694,48.776 L40.915,45.402 L40.902,45.402 L40.902,47.035 C40.902,47.708 40.926,48.054 40.951,48.252 C40.985,48.474 41.157,48.565 41.58,48.585 L41.58,48.732 L40.043,48.732 L40.043,48.585 C40.395,48.572 40.562,48.474 40.593,48.252 C40.62,48.054 40.646,47.708 40.646,47.035 L40.646,45.645 C40.646,45.185 40.638,45.081 40.525,44.936 C40.402,44.783 40.229,44.736 39.96,44.717 L39.96,44.569 L40.896,44.569 L43.592,47.797 L43.603,47.797 L43.603,46.267 C43.603,45.594 43.578,45.248 43.553,45.05 C43.519,44.827 43.347,44.736 42.926,44.717 L42.926,44.569 L44.462,44.569 L44.462,44.717 C44.11,44.731 43.942,44.827 43.911,45.05 C43.884,45.248 43.86,45.594 43.86,46.267 L43.86,48.776" id="Fill-15"></path>
                    <path d="M45.191,47.605 C45.295,47.904 45.619,48.618 46.299,48.618 C46.786,48.618 47.093,48.29 47.093,47.79 C47.093,47.247 46.678,47.022 46.266,46.825 C46.056,46.721 45.191,46.422 45.191,45.654 C45.191,45.018 45.672,44.475 46.51,44.475 C46.69,44.475 46.908,44.513 47.041,44.557 C47.125,44.583 47.215,44.614 47.286,44.628 C47.31,44.85 47.349,45.107 47.399,45.491 L47.241,45.512 C47.13,45.133 46.951,44.685 46.37,44.685 C45.914,44.685 45.677,45.018 45.677,45.397 C45.677,45.87 46.016,46.082 46.505,46.299 C46.926,46.485 47.599,46.748 47.599,47.541 C47.599,48.284 46.991,48.829 46.177,48.829 C45.947,48.829 45.727,48.782 45.569,48.732 C45.409,48.68 45.295,48.629 45.217,48.598 C45.166,48.431 45.095,47.978 45.033,47.631 L45.191,47.605" id="Fill-16"></path>
                    <path d="M50.23,47.805 C50.23,48.503 50.282,48.546 50.909,48.586 L50.909,48.731 L49.04,48.731 L49.04,48.586 C49.641,48.546 49.692,48.503 49.692,47.805 L49.692,44.782 L49.392,44.782 C48.823,44.782 48.65,44.864 48.553,44.987 C48.483,45.076 48.407,45.256 48.329,45.539 L48.168,45.539 C48.194,45.146 48.233,44.736 48.245,44.41 L48.336,44.41 C48.431,44.557 48.495,44.569 48.669,44.569 L51.292,44.569 C51.46,44.569 51.492,44.531 51.593,44.41 L51.683,44.41 C51.689,44.679 51.723,45.146 51.755,45.518 L51.593,45.539 C51.53,45.229 51.46,45.05 51.364,44.949 C51.256,44.827 51.056,44.782 50.66,44.782 L50.23,44.782 L50.23,47.805" id="Fill-17"></path>
                    <path d="M53.432,47.805 C53.432,48.503 53.483,48.546 54.008,48.586 L54.008,48.731 L52.317,48.731 L52.317,48.586 C52.842,48.546 52.894,48.503 52.894,47.805 L52.894,45.5 C52.894,44.802 52.842,44.757 52.317,44.717 L52.317,44.569 L54.008,44.569 L54.008,44.717 C53.483,44.757 53.432,44.802 53.432,45.5 L53.432,47.805" id="Fill-18"></path>
                    <path d="M56.645,47.805 C56.645,48.503 56.696,48.546 57.324,48.586 L57.324,48.731 L55.455,48.731 L55.455,48.586 C56.056,48.546 56.109,48.503 56.109,47.805 L56.109,44.782 L55.806,44.782 C55.237,44.782 55.064,44.864 54.967,44.987 C54.898,45.076 54.82,45.256 54.744,45.539 L54.584,45.539 C54.61,45.146 54.648,44.736 54.66,44.41 L54.751,44.41 C54.847,44.557 54.911,44.569 55.083,44.569 L57.708,44.569 C57.875,44.569 57.907,44.531 58.009,44.41 L58.099,44.41 C58.106,44.679 58.137,45.146 58.17,45.518 L58.009,45.539 C57.944,45.229 57.875,45.05 57.779,44.949 C57.67,44.827 57.471,44.782 57.076,44.782 L56.645,44.782 L56.645,47.805" id="Fill-19"></path>
                    <path d="M60.36,44.569 L60.36,44.717 C59.846,44.758 59.795,44.801 59.795,45.5 L59.795,46.838 C59.795,47.382 59.866,47.79 60.065,48.08 C60.262,48.362 60.557,48.521 60.987,48.521 C61.391,48.521 61.723,48.348 61.927,48.039 C62.139,47.721 62.215,47.158 62.215,46.619 L62.215,46.274 C62.215,45.602 62.19,45.248 62.165,45.05 C62.133,44.827 61.96,44.736 61.537,44.717 L61.537,44.569 L63.074,44.569 L63.074,44.717 C62.721,44.731 62.555,44.827 62.524,45.05 C62.498,45.248 62.471,45.602 62.471,46.274 L62.471,46.701 C62.471,47.445 62.356,47.971 61.985,48.366 C61.71,48.662 61.249,48.828 60.801,48.828 C60.45,48.828 60.045,48.745 59.751,48.503 C59.412,48.227 59.257,47.79 59.257,47.062 L59.257,45.5 C59.257,44.801 59.206,44.758 58.669,44.717 L58.669,44.569 L60.36,44.569" id="Fill-20"></path>
                    <path d="M65.576,47.805 C65.576,48.503 65.628,48.546 66.255,48.586 L66.255,48.731 L64.385,48.731 L64.385,48.586 C64.988,48.546 65.041,48.503 65.041,47.805 L65.041,44.782 L64.74,44.782 C64.169,44.782 63.996,44.864 63.899,44.987 C63.829,45.076 63.754,45.256 63.675,45.539 L63.516,45.539 C63.54,45.146 63.58,44.736 63.593,44.41 L63.682,44.41 C63.78,44.557 63.843,44.569 64.015,44.569 L66.639,44.569 C66.808,44.569 66.839,44.531 66.94,44.41 L67.029,44.41 C67.037,44.679 67.068,45.146 67.103,45.518 L66.94,45.539 C66.877,45.229 66.808,45.05 66.712,44.949 C66.602,44.827 66.402,44.782 66.008,44.782 L65.576,44.782 L65.576,47.805" id="Fill-21"></path>
                    <path d="M68.24,45.5 C68.24,44.802 68.188,44.757 67.676,44.717 L67.676,44.57 L70.482,44.57 C70.488,44.679 70.52,45.146 70.552,45.507 L70.391,45.525 C70.328,45.204 70.256,45.039 70.16,44.935 C70.059,44.827 69.847,44.782 69.457,44.782 L68.97,44.782 C68.791,44.782 68.777,44.795 68.777,44.981 L68.777,46.441 L69.424,46.441 C69.975,46.441 69.994,46.403 70.059,45.927 L70.218,45.927 L70.218,47.196 L70.059,47.196 C70.027,46.958 70.008,46.83 69.925,46.76 C69.841,46.689 69.7,46.677 69.424,46.677 L68.777,46.677 L68.777,47.81 C68.777,48.177 68.817,48.366 68.937,48.443 C69.061,48.521 69.291,48.521 69.591,48.521 C69.957,48.521 70.256,48.49 70.398,48.335 C70.507,48.219 70.609,48.003 70.706,47.709 L70.866,47.728 C70.835,47.904 70.693,48.559 70.641,48.732 L67.613,48.732 L67.613,48.586 C68.188,48.546 68.24,48.503 68.24,47.805 L68.24,45.5" id="Fill-22"></path>
                    <path d="M71.589,47.605 C71.69,47.904 72.019,48.618 72.698,48.618 C73.184,48.618 73.491,48.29 73.491,47.79 C73.491,47.247 73.075,47.022 72.664,46.825 C72.453,46.721 71.589,46.422 71.589,45.654 C71.589,45.018 72.069,44.475 72.909,44.475 C73.087,44.475 73.305,44.513 73.439,44.557 C73.522,44.583 73.611,44.614 73.681,44.628 C73.708,44.85 73.748,45.107 73.796,45.491 L73.638,45.512 C73.529,45.133 73.349,44.685 72.767,44.685 C72.313,44.685 72.075,45.018 72.075,45.397 C72.075,45.87 72.415,46.082 72.901,46.299 C73.323,46.485 73.997,46.748 73.997,47.541 C73.997,48.284 73.389,48.829 72.575,48.829 C72.345,48.829 72.127,48.782 71.967,48.732 C71.807,48.68 71.69,48.629 71.614,48.598 C71.563,48.431 71.493,47.978 71.428,47.631 L71.589,47.605" id="Fill-23"></path>
                    <path d="M77.209,45.5 C77.209,44.802 77.16,44.757 76.646,44.717 L76.646,44.57 L79.426,44.57 C79.431,44.679 79.464,45.146 79.495,45.507 L79.336,45.525 C79.272,45.204 79.201,45.039 79.105,44.935 C79.004,44.827 78.792,44.782 78.401,44.782 L77.939,44.782 C77.76,44.782 77.748,44.795 77.748,44.981 L77.748,46.512 L78.445,46.512 C78.996,46.512 79.014,46.473 79.081,45.998 L79.239,45.998 L79.239,47.26 L79.081,47.26 C79.014,46.785 78.996,46.747 78.445,46.747 L77.748,46.747 L77.748,47.805 C77.748,48.503 77.8,48.546 78.414,48.586 L78.414,48.732 L76.646,48.732 L76.646,48.586 C77.16,48.546 77.209,48.503 77.209,47.805 L77.209,45.5" id="Fill-24"></path>
                    <path d="M83.76,46.83 C83.76,48.022 83.132,48.618 82.365,48.618 C81.43,48.618 80.782,47.746 80.782,46.512 C80.782,45.307 81.422,44.686 82.178,44.686 C83.094,44.686 83.76,45.448 83.76,46.83 M82.344,44.475 C80.917,44.475 80.161,45.622 80.161,46.698 C80.161,47.904 81.021,48.829 82.231,48.829 C83.454,48.829 84.38,47.925 84.38,46.594 C84.38,45.334 83.454,44.475 82.344,44.475" id="Fill-25"></path>
                    <path d="M86.195,44.96 C86.195,44.833 86.211,44.802 86.252,44.788 C86.303,44.769 86.39,44.757 86.61,44.757 C87.09,44.757 87.576,45.025 87.576,45.697 C87.576,46.01 87.481,46.325 87.203,46.543 C87.031,46.684 86.826,46.716 86.564,46.716 L86.195,46.716 L86.195,44.96 Z M86.195,46.902 L86.539,46.902 C86.737,46.902 86.84,46.965 86.944,47.131 C87.121,47.432 87.39,47.905 87.588,48.194 C87.832,48.547 88.058,48.77 88.793,48.79 L88.881,48.79 L88.896,48.669 C88.665,48.612 88.551,48.509 88.416,48.347 C88.243,48.155 88.107,47.983 87.878,47.644 C87.685,47.363 87.422,46.92 87.307,46.726 C87.826,46.516 88.154,46.139 88.154,45.608 C88.154,45.236 87.985,44.948 87.727,44.788 C87.493,44.627 87.127,44.569 86.717,44.569 L85.092,44.569 L85.092,44.717 C85.605,44.757 85.654,44.802 85.654,45.5 L85.654,47.806 C85.654,48.503 85.605,48.547 85.065,48.586 L85.065,48.732 L86.77,48.732 L86.77,48.586 C86.244,48.547 86.195,48.503 86.195,47.806 L86.195,46.902 Z" id="Fill-26"></path>
                    <path d="M92.11,44.296 C92.11,44.145 92.133,44.106 92.178,44.093 C92.238,44.07 92.342,44.054 92.599,44.054 C93.162,44.054 93.736,44.371 93.736,45.16 C93.736,45.53 93.624,45.898 93.3,46.157 C93.098,46.321 92.856,46.359 92.545,46.359 L92.11,46.359 L92.11,44.296 Z M92.11,46.579 L92.517,46.579 C92.75,46.579 92.87,46.653 92.991,46.849 C93.203,47.204 93.519,47.76 93.751,48.099 C94.04,48.513 94.301,48.776 95.168,48.8 L95.273,48.8 L95.288,48.655 C95.016,48.59 94.881,48.469 94.723,48.28 C94.52,48.057 94.362,47.851 94.09,47.451 C93.865,47.12 93.556,46.599 93.42,46.373 C94.03,46.125 94.414,45.682 94.414,45.055 C94.414,44.62 94.219,44.279 93.917,44.093 C93.638,43.904 93.209,43.837 92.727,43.837 L90.814,43.837 L90.814,44.008 C91.417,44.054 91.477,44.106 91.477,44.927 L91.477,47.641 C91.477,48.461 91.417,48.513 90.783,48.558 L90.783,48.732 L92.79,48.732 L92.79,48.558 C92.169,48.513 92.11,48.461 92.11,47.641 L92.11,46.579 Z" id="Fill-27"></path>
                    <path d="M96.246,45.5 C96.246,44.802 96.194,44.757 95.683,44.717 L95.683,44.57 L98.486,44.57 C98.493,44.679 98.525,45.146 98.557,45.507 L98.397,45.525 C98.334,45.204 98.264,45.039 98.166,44.935 C98.062,44.827 97.852,44.782 97.462,44.782 L96.975,44.782 C96.798,44.782 96.783,44.795 96.783,44.981 L96.783,46.441 L97.431,46.441 C97.981,46.441 98.001,46.403 98.062,45.927 L98.225,45.927 L98.225,47.196 L98.062,47.196 C98.031,46.958 98.013,46.83 97.929,46.76 C97.846,46.689 97.705,46.677 97.431,46.677 L96.783,46.677 L96.783,47.81 C96.783,48.177 96.822,48.366 96.944,48.443 C97.065,48.521 97.297,48.521 97.595,48.521 C97.961,48.521 98.264,48.49 98.404,48.335 C98.512,48.219 98.615,48.003 98.711,47.709 L98.871,47.728 C98.84,47.904 98.698,48.559 98.646,48.732 L95.619,48.732 L95.619,48.586 C96.194,48.546 96.246,48.503 96.246,47.805 L96.246,45.5" id="Fill-28"></path>
                    <path d="M99.593,47.605 C99.697,47.904 100.023,48.618 100.702,48.618 C101.187,48.618 101.496,48.29 101.496,47.79 C101.496,47.247 101.079,47.022 100.67,46.825 C100.458,46.721 99.593,46.422 99.593,45.654 C99.593,45.018 100.074,44.475 100.91,44.475 C101.092,44.475 101.308,44.513 101.445,44.557 C101.528,44.583 101.617,44.614 101.689,44.628 C101.713,44.85 101.751,45.107 101.803,45.491 L101.642,45.512 C101.533,45.133 101.356,44.685 100.771,44.685 C100.318,44.685 100.081,45.018 100.081,45.397 C100.081,45.87 100.419,46.082 100.907,46.299 C101.329,46.485 102,46.748 102,47.541 C102,48.284 101.393,48.829 100.581,48.829 C100.35,48.829 100.131,48.782 99.972,48.732 C99.812,48.68 99.697,48.629 99.621,48.598 C99.569,48.431 99.498,47.978 99.434,47.631 L99.593,47.605" id="Fill-29"></path>
                    <path d="M103.226,45.5 C103.226,44.802 103.173,44.757 102.661,44.717 L102.661,44.57 L105.465,44.57 C105.471,44.679 105.505,45.146 105.537,45.507 L105.375,45.525 C105.31,45.204 105.241,45.039 105.145,44.935 C105.043,44.827 104.831,44.782 104.44,44.782 L103.953,44.782 C103.774,44.782 103.764,44.795 103.764,44.981 L103.764,46.441 L104.41,46.441 C104.96,46.441 104.979,46.403 105.043,45.927 L105.203,45.927 L105.203,47.196 L105.043,47.196 C105.01,46.958 104.993,46.83 104.907,46.76 C104.826,46.689 104.685,46.677 104.41,46.677 L103.764,46.677 L103.764,47.81 C103.764,48.177 103.801,48.366 103.922,48.443 C104.047,48.521 104.273,48.521 104.574,48.521 C104.941,48.521 105.241,48.49 105.382,48.335 C105.489,48.219 105.593,48.003 105.688,47.709 L105.847,47.728 C105.817,47.904 105.677,48.559 105.625,48.732 L102.597,48.732 L102.597,48.586 C103.173,48.546 103.226,48.503 103.226,47.805 L103.226,45.5" id="Fill-30"></path>
                    <path d="M108.072,45.333 L108.085,45.333 L108.649,46.907 L107.514,46.907 L108.072,45.333 Z M108.737,48.732 L110.287,48.732 L110.287,48.586 C109.89,48.552 109.806,48.508 109.6,47.971 C109.352,47.317 109.071,46.505 108.767,45.691 L108.315,44.475 L108.167,44.532 L106.848,47.933 C106.623,48.503 106.575,48.539 106.157,48.586 L106.157,48.732 L107.528,48.732 L107.528,48.586 L107.335,48.565 C107.047,48.539 106.988,48.456 107.112,48.086 C107.199,47.815 107.367,47.317 107.43,47.15 L108.731,47.15 C108.909,47.612 109.095,48.112 109.141,48.265 C109.205,48.464 109.178,48.534 108.942,48.559 L108.737,48.586 L108.737,48.732 Z" id="Fill-31"></path>
                    <path d="M111.823,44.96 C111.823,44.833 111.842,44.802 111.88,44.788 C111.933,44.769 112.021,44.757 112.239,44.757 C112.72,44.757 113.206,45.025 113.206,45.697 C113.206,46.01 113.109,46.325 112.834,46.543 C112.66,46.684 112.457,46.716 112.194,46.716 L111.823,46.716 L111.823,44.96 Z M111.823,46.902 L112.168,46.902 C112.368,46.902 112.472,46.965 112.573,47.131 C112.751,47.432 113.018,47.905 113.219,48.194 C113.463,48.547 113.686,48.77 114.422,48.79 L114.511,48.79 L114.526,48.669 C114.293,48.612 114.179,48.509 114.044,48.347 C113.872,48.155 113.736,47.983 113.508,47.644 C113.314,47.363 113.053,46.92 112.937,46.726 C113.455,46.516 113.781,46.139 113.781,45.608 C113.781,45.236 113.616,44.948 113.36,44.788 C113.121,44.627 112.757,44.569 112.349,44.569 L110.721,44.569 L110.721,44.717 C111.233,44.757 111.284,44.802 111.284,45.5 L111.284,47.806 C111.284,48.503 111.233,48.547 110.695,48.586 L110.695,48.732 L112.399,48.732 L112.399,48.586 C111.873,48.547 111.823,48.503 111.823,47.806 L111.823,46.902 Z" id="Fill-32"></path>
                    <path d="M118.302,45.621 C118.112,44.884 117.701,44.686 117.075,44.686 C115.921,44.686 115.408,45.558 115.408,46.561 C115.408,47.797 116.043,48.617 117.079,48.617 C117.797,48.617 118.13,48.27 118.444,47.6 L118.603,47.619 C118.518,47.893 118.38,48.406 118.278,48.649 C118.097,48.693 117.522,48.828 117.075,48.828 C115.453,48.828 114.776,47.728 114.776,46.709 C114.776,45.391 115.793,44.475 117.198,44.475 C117.739,44.475 118.17,44.603 118.347,44.64 C118.398,44.994 118.424,45.274 118.463,45.607 L118.302,45.621" id="Fill-33"></path>
                    <path d="M122.478,46.408 L122.478,45.5 C122.478,44.802 122.428,44.757 121.914,44.717 L121.914,44.57 L123.605,44.57 L123.605,44.717 C123.065,44.757 123.015,44.802 123.015,45.5 L123.015,47.805 C123.015,48.503 123.065,48.546 123.59,48.586 L123.59,48.732 L121.864,48.732 L121.864,48.586 C122.428,48.546 122.478,48.503 122.478,47.805 L122.478,46.665 L120.255,46.665 L120.255,47.805 C120.255,48.503 120.306,48.546 120.833,48.586 L120.833,48.732 L119.141,48.732 L119.141,48.586 C119.668,48.546 119.721,48.503 119.721,47.805 L119.721,45.5 C119.721,44.802 119.668,44.757 119.117,44.717 L119.117,44.57 L120.806,44.57 L120.806,44.717 C120.306,44.757 120.255,44.802 120.255,45.5 L120.255,46.408 L122.478,46.408" id="Fill-34"></path>
                    <path d="M125.352,43.49 C125.9,43.49 126.337,43.936 126.337,44.49 C126.337,45.057 125.9,45.499 125.349,45.499 C124.802,45.499 124.355,45.057 124.355,44.49 C124.355,43.936 124.802,43.49 125.349,43.49 L125.352,43.49 Z M125.349,43.646 C124.908,43.646 124.546,44.024 124.546,44.49 C124.546,44.968 124.908,45.342 125.352,45.342 C125.798,45.347 126.155,44.968 126.155,44.496 C126.155,44.024 125.798,43.646 125.352,43.646 L125.349,43.646 Z M125.162,45.076 L124.985,45.076 L124.985,43.957 C125.078,43.945 125.166,43.93 125.3,43.93 C125.468,43.93 125.58,43.967 125.649,44.015 C125.713,44.067 125.748,44.14 125.748,44.248 C125.748,44.394 125.65,44.483 125.53,44.518 L125.53,44.527 C125.63,44.545 125.696,44.635 125.719,44.798 C125.747,44.972 125.772,45.039 125.79,45.076 L125.603,45.076 C125.576,45.039 125.55,44.938 125.527,44.791 C125.499,44.647 125.429,44.594 125.287,44.594 L125.162,44.594 L125.162,45.076 Z M125.162,44.455 L125.291,44.455 C125.438,44.455 125.563,44.404 125.563,44.265 C125.563,44.166 125.492,44.069 125.291,44.069 C125.233,44.069 125.194,44.073 125.162,44.078 L125.162,44.455 Z" id="Fill-35"></path>
                </g>
                <path d="M142.5,4.5 L142.5,44.5" id="Line-3" stroke="#979797" stroke-linecap="square"></path>
            </g>
        </g>
    </g>
</svg>